<?xml version="1.0" standalone="no"?>
<!DOCTYPE svg PUBLIC "-//W3C//DTD SVG 1.1//EN" "http://www.w3.org/Graphics/SVG/1.1/DTD/svg11.dtd" >
<!--
2013-9-30: Created.
-->
<svg>
<metadata>
Created by iconfont
</metadata>
<defs>

<font id="iconfont" horiz-adv-x="1024" >
  <font-face
    font-family="iconfont"
    font-weight="500"
    font-stretch="normal"
    units-per-em="1024"
    ascent="896"
    descent="-128"
  />
    <missing-glyph />
    
    <glyph glyph-name="gantanhao" unicode="&#58925;" d="M512.777951 804.591378C233.187958 804.591378 6.538403 577.941823 6.538403 298.35183c0-279.591802 226.656792-506.248594 506.239548-506.248594 279.591802 0 506.248594 226.656792 506.248594 506.248594C1019.026544 577.941823 792.369753 804.591378 512.777951 804.591378L512.777951 804.591378zM597.97077 635.951604l-24.3987-478.242375-122.006163 0L427.165399 635.951604 597.97077 635.951604 597.97077 635.951604zM509.624537-69.559067c-53.452438 0-84.821936 38.562827-84.821936 84.843647 0 49.591633 36.0173 85.954488 85.983435 85.954488 51.124014 0 84.8147-36.362855 84.8147-85.954488C595.598926-33.196212 561.90824-69.559067 509.624537-69.559067L509.624537-69.559067zM509.21747-150.637795"  horiz-adv-x="1024" />

    
    <glyph glyph-name="shouqikuaijin" unicode="&#58882;" d="M937.950749 354.121506 522.51132-60.651103c-14.947023-14.94641-39.186046-14.94641-54.152513 0-14.947023 14.94641-14.947023 39.129182 0 54.076616l391.256689 390.590859L468.357784 774.625652c-14.947023 14.909571-14.947023 39.129182 0 54.058197 14.966466 14.929014 39.20549 14.929014 54.152513 0l415.439429-414.754189c8.234882-8.215102 11.49834-19.175735 10.681708-29.912263C949.449089 373.278821 946.185632 362.319212 937.950749 354.121506zM489.111284 384.016373c0.815608-10.737552-2.429428-21.697161-10.663287-29.894867L139.582638 15.78987c-14.948046-14.909571-39.20549-14.909571-54.152513 0-14.966466 14.947434-14.966466 39.167045 0 54.077639l314.680572 314.148863L85.429102 698.165236c-14.966466 14.927991-14.966466 39.129182 0 54.058197 14.947023 14.929014 39.20549 14.929014 54.152513 0l338.864335-338.293773C486.681856 405.713534 489.926893 394.752902 489.111284 384.016373z"  horiz-adv-x="1024" />

    
    <glyph glyph-name="zhankaikuaitui" unicode="&#58885;" d="M89.101898 412.873608 504.541327 827.646216c14.947023 14.94641 39.186046 14.94641 54.152513 0 14.947023-14.94641 14.947023-39.129182 0-54.076616L167.438174 382.97874 558.69384-7.630538c14.947023-14.909571 14.947023-39.129182 0-54.057173-14.966466-14.930037-39.20549-14.930037-54.152513 0L89.101898 353.066477c-8.234882 8.215102-11.49834 19.175735-10.681708 29.912263C77.603559 393.716292 80.867016 404.675902 89.101898 412.873608zM537.941363 382.97874c-0.815608 10.737552 2.429428 21.697161 10.664311 29.894867l338.864335 338.331635c14.948046 14.909571 39.206513 14.909571 54.153536 0 14.966466-14.947434 14.966466-39.167045 0-54.077639L626.94195 382.97874 941.623546 68.829877c14.966466-14.927991 14.966466-39.129182 0-54.057173-14.947023-14.930037-39.20549-14.930037-54.153536 0L548.605674 353.066477C540.370792 361.281579 537.125755 372.242212 537.941363 382.97874z"  horiz-adv-x="1024" />

    
    <glyph glyph-name="bofang" unicode="&#58886;" d="M839.164908 338.421942 240.50216-45.694459c-32.559867-21.048385-76.198502-11.69332-76.198502 19.264762L164.303659 793.993768c0 35.897581 40.684228 38.282908 76.198502 19.23304L839.164908 429.157479C863.815318 404.092617 863.815318 363.471454 839.164908 338.421942zM227.422748 30.839635l568.042125 352.942401L227.422748 736.709087C227.422748 680.378128 227.422748 45.61106 227.422748 30.839635z"  horiz-adv-x="1024" />

    
    <glyph glyph-name="zanting" unicode="&#58887;" d="M754.375399-40.139953 633.187444-40.139953c-33.46246 0-60.594489 27.130917-60.594489 60.592007L572.592954 747.54897c0 33.461089 27.132029 60.590983 60.594489 60.590983l121.187955 0c33.46246 0 60.593466-27.129894 60.593466-60.590983l0-727.096916C814.968865-13.010059 787.837859-40.139953 754.375399-40.139953zM754.375399 717.252966c0 16.731056-13.550153 30.29498-30.296221 30.29498l-60.594489 0c-16.746069 0-30.296221-13.564947-30.296221-30.29498l0-666.505933c0-16.745383 13.550153-30.29498 30.296221-30.29498l60.594489 0c16.746069 0 30.296221 13.549597 30.296221 30.29498L754.375399 717.252966zM390.812556-40.139953 269.624601-40.139953c-33.46246 0-60.593466 27.130917-60.593466 60.592007L209.031135 747.54897c0 33.461089 27.131006 60.590983 60.593466 60.590983l121.187955 0c33.46246 0 60.593466-27.129894 60.593466-60.590983l0-727.096916C451.406022-13.010059 424.275017-40.139953 390.812556-40.139953zM390.812556 717.252966c0 16.731056-13.551176 30.29498-30.296221 30.29498l-60.594489 0c-16.746069 0-30.296221-13.564947-30.296221-30.29498l0-666.505933c0-16.745383 13.551176-30.29498 30.296221-30.29498l60.594489 0c16.746069 0 30.296221 13.549597 30.296221 30.29498L390.812556 717.252966z"  horiz-adv-x="1024" />

    
    <glyph glyph-name="tingzhi" unicode="&#58888;" d="M889.078713-55.908078 134.921287-55.908078c-34.706852 0-62.846879 28.138874-62.846879 62.844304L72.074409 761.063775c0 34.70543 28.140027 62.844304 62.846879 62.844304l754.157426 0c34.706852 0 62.846879-28.138874 62.846879-62.844304l0-754.126526C951.925591-27.768181 923.785565-55.908078 889.078713-55.908078zM889.078713 729.642135c0 17.352203-14.05364 31.42164-31.422928 31.42164L166.344215 761.063775c-17.368264 0-31.422928-14.069437-31.422928-31.42164l0-691.283246c0-17.368576 14.054663-31.42164 31.422928-31.42164l691.311571 0c17.369288 0 31.422928 14.053064 31.422928 31.42164L889.078713 729.642135z"  horiz-adv-x="1024" />

    
    <glyph glyph-name="shangyishou" unicode="&#58889;" d="M76.442058 423.876196l479.972785 344.375282c31.816917 17.080004 68.268577 21.123087 68.295184-44.618197l0-149.899008 271.113573 194.517205c31.815893 17.080004 69.179357 17.590634 68.295184-46.384423l0-676.471912c-0.91078-57.779961-39.127716-66.168002-68.295184-47.295166L624.711051 192.632531l0-148.120502c-0.026607-56.012711-39.127716-65.284889-68.295184-46.411029L76.442058 342.518237C54.339786 364.978784 54.339786 401.402345 76.442058 423.876196zM907.552193 699.640844 568.143437 462.299297c0 0 0 186.833199 0 237.341546L115.598428 383.190565l452.545009-316.465628c0 13.244652 0 237.328243 0 237.328243l339.408757-237.328243C907.552193 79.970612 907.552193 649.132496 907.552193 699.640844z"  horiz-adv-x="1024" />

    
    <glyph glyph-name="kuaijin" unicode="&#58890;" d="M947.557942 342.518237 467.585156-1.899c-29.166445-18.872836-68.267554-9.601682-68.295184 46.411029L399.289972 192.632531 128.175376-1.899c-29.166445-18.872836-67.384404-10.484795-68.295184 47.295166L59.880192 721.867054c-0.883149 63.975057 36.479291 63.464427 68.295184 46.384423l271.113573-194.517205L399.288949 723.633281c0.02763 65.741283 36.479291 61.698201 68.295184 44.618197l479.973809-344.375282C969.661238 401.402345 969.661238 364.978784 947.557942 342.518237zM116.44883 66.724936l339.408757 237.328243c0 0 0-224.082568 0-237.328243l452.545009 316.465628-452.545009 316.450279c0-50.508347 0-237.341546 0-237.341546L116.44883 699.640844C116.44883 649.132496 116.44883 79.970612 116.44883 66.724936z"  horiz-adv-x="1024" />

    
    <glyph glyph-name="time" unicode="&#58960;" d="M983.758848 499.294976c-25.796608 60.975104-62.703616 115.736576-109.713408 162.727936-47.013888 47.03232-101.767168 83.924992-162.738176 109.707264-63.13984 26.7264-130.197504 40.259584-199.30112 40.259584s-136.163328-13.533184-199.309312-40.259584c-60.966912-25.782272-115.720192-62.674944-162.73408-109.707264-47.013888-46.99136-83.924992-101.752832-109.713408-162.727936C13.541376 436.159232 0 369.10976 0 299.991808c0-69.097472 13.541376-136.146944 40.249344-199.282688 25.788416-60.987392 62.69952-115.736576 109.713408-162.727936 47.013888-47.013888 101.767168-83.924992 162.732032-109.717504 63.145984-26.714112 130.203648-40.25344 199.309312-40.25344 69.097472 0 136.155136 13.53728 199.30112 40.25344 60.971008 25.792512 115.724288 62.703616 162.738176 109.717504 47.009792 46.99136 83.9168 101.740544 109.713408 162.727936 26.70592 63.135744 40.2432 130.185216 40.2432 199.282688C1024 369.10976 1010.46272 436.159232 983.758848 499.294976L983.758848 499.294976zM831.449088-19.42656c-85.331968-85.338112-198.772736-132.319232-319.444992-132.319232-120.674304 0-234.121216 46.98112-319.451136 132.319232-85.331968 85.313536-132.315136 198.754304-132.315136 319.418368 0 120.659968 46.983168 234.131456 132.315136 319.4368 85.331968 85.338112 198.776832 132.327424 319.451136 132.327424 120.672256 0 234.113024-46.987264 319.444992-132.327424 85.327872-85.305344 132.315136-198.776832 132.315136-319.4368C963.764224 179.327744 916.77696 65.886976 831.449088-19.42656L831.449088-19.42656zM542.119936 637.301504c0 16.642048-13.488128 30.11584-30.11584 30.11584-16.635904 0-30.124032-13.473792-30.124032-30.11584l0-322.834432c0-2.504704 0.311296-4.923392 0.88064-7.245824-0.569344-2.318336-0.88064-4.724736-0.88064-7.22944 0-16.623616 13.488128-30.097408 30.124032-30.097408l337.317888 0c16.631808 0 30.111744 13.473792 30.111744 30.097408 0 16.654336-13.481984 30.14656-30.111744 30.14656l-307.2 0L542.121984 637.301504 542.119936 637.301504z"  horiz-adv-x="1024" />

    
    <glyph glyph-name="clear" unicode="&#59103;" d="M810.666667 622.293333l-60.373333 60.373333-238.293333-238.293333-238.293333 238.293333-60.373333-60.373333 238.293333-238.293333-238.293333-238.293333 60.373333-60.373333 238.293333 238.293333 238.293333-238.293333 60.373333 60.373333-238.293333 238.293333z"  horiz-adv-x="1024" />

    
    <glyph glyph-name="mylocation" unicode="&#59377;" d="M512 554.666667c-94.293333 0-170.666667-76.373333-170.666667-170.666667s76.373333-170.666667 170.666667-170.666667 170.666667 76.373333 170.666667 170.666667-76.373333 170.666667-170.666667 170.666667zM893.44 426.666667c-19.626667 177.92-160.853333 319.146667-338.773333 338.773333l0 87.893333-85.333333 0 0-87.893333c-177.92-19.626667-319.146667-160.853333-338.773333-338.773333l-87.893333 0 0-85.333333 87.893333 0c19.626667-177.92 160.853333-319.146667 338.773333-338.773333l0-87.893333 85.333333 0 0 87.893333c177.92 19.626667 319.146667 160.853333 338.773333 338.773333l87.893333 0 0 85.333333-87.893333 0zM512 85.333333c-164.906667 0-298.666667 133.76-298.666667 298.666667s133.76 298.666667 298.666667 298.666667 298.666667-133.76 298.666667-298.666667-133.76-298.666667-298.666667-298.666667z"  horiz-adv-x="1024" />

    
    <glyph glyph-name="xiugai" unicode="&#58949;" d="M468.096 480.64 334.72 614.016 366.272 645.504 189.248 822.592 64 697.28 241.024 520.256 272.512 551.808 405.824 418.432ZM906.688 42.048c18.048 27.776-0.832 85.44-0.832 85.44l-204.224 204.224c-116.864-9.216-185.856-157.952-185.856-157.952s183.744-191.232 214.976-214.976 84.032-8.64 84.032-8.64S888.64 14.336 906.688 42.048zM749.056 0.128l-166.656 166.656c-9.6 9.472-9.6 25.024-0.064 34.56 9.472 9.472 25.088 9.472 34.56 0l166.656-166.656c9.472-9.472 9.472-25.088 0-34.56C774.08-9.408 758.592-9.408 749.056 0.128zM824.64 75.712l-166.656 166.656c-9.472 9.536-9.472 25.152 0 34.56 9.536 9.6 25.024 9.6 34.56 0l166.656-166.656c9.472-9.472 9.472-25.024 0-34.624C849.6 66.112 834.176 66.176 824.64 75.712zM386.304 140.736c0.384 3.392 1.28 6.656 2.88 8.832 4.608 6.08 160.448 192.448 271.68 219.968 79.104-25.344 169.28-6.72 232.128 56.064 52.288 52.288 73.92 123.584 65.152 191.616l-158.592-165.568-159.232 26.688L590.144 622.144l175.424 191.936c-69.568 10.624-143.04-10.88-196.608-64.448-66.688-66.624-83.648-164.032-51.136-246.4C510.464 467.776 487.936 417.152 428.544 353.792c-122.88-131.008-122.88-131.008-122.88-131.008s-1.28-1.664-4.032-3.328c-48.704 16.32-104.576 5.248-143.36-33.472-54.592-54.592-54.592-143.232 0-197.824s143.104-54.592 197.76 0.064C397.312 29.504 407.296 90.048 386.304 140.736zM201.664 26.752c-31.552 31.488-31.552 82.688 0 114.24 31.552 31.488 82.688 31.488 114.176-0.064s31.552-82.688 0-114.176C284.352-4.8 233.216-4.8 201.664 26.752z"  horiz-adv-x="1024" />

    
    <glyph glyph-name="renyuandingwei" unicode="&#58997;" d="M507.712 738.304m-93.696 0a1.464 1.464 0 1 0 187.392 0 1.464 1.464 0 1 0-187.392 0ZM570.624 603.136 448.704 603.136c-41.152 0-78.144-14.976-104.448-38.912l0-172.928 0-46.784 0-21.952 91.648 0 19.712-283.84L567.68 38.72l19.072 283.84 92.992 0L679.744 332.672 679.744 395.776 679.744 559.68C653.248 586.24 614.272 603.136 570.624 603.136zM654.272 210.624l0-49.408c103.872-15.36 175.232-47.232 175.232-84.032 0-52.032-142.144-94.08-317.44-94.08s-317.504 42.048-317.504 94.08c0 36.928 71.872 68.864 176.448 84.288l0 49.344c-173.632-18.816-298.688-71.488-298.688-133.632C72.192-0.768 269.184-64 512-64c242.816 0 439.744 63.232 439.744 141.12C951.744 139.136 827.264 191.616 654.272 210.624z"  horiz-adv-x="1024" />

    
    <glyph glyph-name="tubiao212" unicode="&#58946;" d="M800.089863 223.820337c-51.133994 0-96.674327-23.978238-125.967872-61.313309l-300.808123 163.92412c6.886158 17.850386 10.669502 37.230689 10.669502 57.480843 0 15.161009-2.111182 29.826713-6.052123 43.721831l295.749678 178.266444c29.276148-37.708596 75.015013-62.019424 126.408938-62.019424 88.41278 0 160.129518 71.828284 160.129518 160.092678 0 88.392313-71.716738 159.969875-160.129518 159.969875-88.349332 0-160.003646-71.576539-160.003646-159.969875 0-12.747937 1.503309-25.14998 4.326746-37.044438l-298.245641-179.773846c-29.37746 34.697884-73.271215 56.725607-122.3104 56.725607-88.347285 0-160.000576-71.574492-160.000576-159.967828 0-88.261323 71.654314-160.091654 160.000576-160.091654 41.841928 0 79.938375 16.096355 108.46952 42.40068l311.133778-169.555644c-2.207377-10.590704-3.372979-21.564143-3.372979-32.811841 0-88.267463 71.654314-160.091654 160.003646-160.091654 88.41278 0 160.129518 71.825214 160.129518 160.091654C960.219382 152.244822 888.502643 223.820337 800.089863 223.820337zM800.089863 799.928429c53.021061 0 96.101248-43.005483 96.101248-95.955932 0-52.945332-43.080187-96.081804-96.101248-96.081804-52.896211 0-95.975376 43.136472-95.975376 96.081804C704.114488 756.922947 747.193652 799.928429 800.089863 799.928429zM127.88257 383.911991c0 52.949426 43.078141 95.954908 95.974352 95.954908 53.022084 0 96.101248-43.004459 96.101248-95.954908 0-52.947379-43.080187-96.079758-96.101248-96.079758C170.960711 287.832234 127.88257 330.964612 127.88257 383.911991zM800.089863-32.225202c-52.896211 0-95.975376 43.129309-95.975376 96.078734 0 52.946356 43.079164 95.955932 95.975376 95.955932 53.021061 0 96.101248-43.008553 96.101248-95.955932C896.191112 10.904106 853.110924-32.225202 800.089863-32.225202z"  horiz-adv-x="1025" />

    
    <glyph glyph-name="wechaticon23" unicode="&#58928;" d="M299.591111 406.204444c0 13.902222 5.717333 27.719111 15.552 37.546667 9.827556 9.834667 23.644444 15.552 37.546667 15.552 13.902222 0 27.719111-5.717333 37.546667-15.552 9.827556-9.827556 15.552-23.644444 15.552-37.546667 0-13.902222-5.724444-27.719111-15.552-37.546667-9.827556-9.827556-23.651556-15.552-37.546667-15.552-13.902222 0-27.719111 5.724444-37.546667 15.552C305.308444 378.485333 299.591111 392.302222 299.591111 406.204444L299.591111 406.204444zM273.038222 86.766222c-2.602667 0-5.255111 0.398222-7.886222 1.223111-13.994667 4.352-21.824 19.2-17.472 33.187556 1.962667 6.321778 49.92 155.036444 151.978667 152.376889 29.048889-0.718222 53.368889-8.042667 76.892444-15.132444 30.215111-9.080889 56.341333-16.917333 90.965333-11.392 16.967111 2.730667 23.978667 19.783111 35.953778 58.069333 15.793778 50.474667 39.665778 126.727111 144.910222 126.727111 14.684444 0 26.552889-11.896889 26.552889-26.545778 0-14.656-11.868444-26.552889-26.552889-26.552889-63.032889 0-76.892444-34.012444-94.257778-89.500444-12.032-38.499556-27.057778-86.421333-78.222222-94.599111-46.705778-7.431111-82.787556 3.420444-114.673778 12.956444-21.084444 6.343111-41.024 12.344889-62.954667 12.878222-0.398222 0.028444-0.796444 0.028444-1.194667 0.028444-51.456 0-88.682667-82.865778-98.744889-115.050667C294.840889 94.069333 284.352 86.766222 273.038222 86.766222L273.038222 86.766222zM273.038222 86.766222M793.315556-7.818667 235.555556-7.818667c-54.897778 0-99.555556 44.657778-99.555556 99.555556L136 514.229333c0 54.897778 44.657778 99.555556 99.555556 99.555556l557.76 0c54.897778 0 99.555556-44.657778 99.555556-99.555556l0-422.492444C892.871111 36.839111 848.206222-7.818667 793.315556-7.818667zM235.555556 556.896c-23.530667 0-42.666667-19.136-42.666667-42.666667l0-422.492444c0-23.530667 19.136-42.666667 42.666667-42.666667l557.76 0c23.530667 0 42.666667 19.136 42.666667 42.666667L835.982222 514.229333c0 23.530667-19.136 42.666667-42.666667 42.666667L235.555556 556.896z"  horiz-adv-x="1024" />

    
    <glyph glyph-name="iconfontcheckboxunchecked" unicode="&#58881;" d="M16 880l0-992 992 0L1008 880 16 880zM946-50 78-50 78 818l868 0L946-50z"  horiz-adv-x="1024" />

    
    <glyph glyph-name="image" unicode="&#60198;" d="M365.714286 566.857143q0-45.714286-32.036571-77.677714t-77.677714-32.036571-77.677714 32.036571-32.036571 77.677714 32.036571 77.677714 77.677714 32.036571 77.677714-32.036571 32.036571-77.677714zM950.857143 347.428571l0-256-804.571429 0 0 109.714286 182.857143 182.857143 91.428571-91.428571 292.571429 292.571429zM1005.714286 749.714286l-914.285714 0q-7.460571 0-12.873143-5.412571t-5.412571-12.873143l0-694.857143q0-7.460571 5.412571-12.873143t12.873143-5.412571l914.285714 0q7.460571 0 12.873143 5.412571t5.412571 12.873143l0 694.857143q0 7.460571-5.412571 12.873143t-12.873143 5.412571zM1097.142857 731.428571l0-694.857143q0-37.741714-26.843429-64.585143t-64.585143-26.843429l-914.285714 0q-37.741714 0-64.585143 26.843429t-26.843429 64.585143l0 694.857143q0 37.741714 26.843429 64.585143t64.585143 26.843429l914.285714 0q37.741714 0 64.585143-26.843429t26.843429-64.585143z"  horiz-adv-x="1098" />

    
    <glyph glyph-name="lingdang2" unicode="&#58971;" d="M852.433139 210.845149 852.433139 477.215025c0 123.539645-66.800456 222.86993-170.669996 274.767248C661.336995 833.156536 593.325073 893.299418 512 893.299418c-78.905136 0-142.982038-57.721946-163.181473-138.140166-107.652752-50.913563-177.252665-151.832837-177.252665-277.944227l0-265.992353C110.137607 197.453098 67.242896 148.05362 67.242896 85.640611l0-45.466457c0-38.808883 32.605733-70.43186 72.626083-70.43186l300.943119 0c-2.194223-7.036095-4.463351-14.222999-4.463351-22.091041 0-41.760147 33.892105-75.651254 75.652253-75.651254 41.760147 0 75.651254 33.892105 75.651254 75.651254 0 7.868042-2.268129 15.054946-4.463351 22.165946l300.944118 0c40.018352 0 72.625084 31.622977 72.625084 70.43186L956.758103 85.715516C956.757104 147.523291 914.54453 196.698054 852.433139 210.845149zM512 817.648164c26.175871 0 50.308329-12.331393 68.46435-31.84969-21.938234 3.631404-44.785319 5.749723-68.46435 5.749723-22.619372 0-44.331892-2.194223-65.363275-5.52301C463.506375 805.619388 486.353459 817.648164 512 817.648164zM881.104852 45.469453l-738.210702-5.220393L142.89415 85.715516c0 31.621978 26.32668 53.713019 66.497839 53.713019l37.827125 0L247.219113 477.215025c0 140.561102 108.862221 238.680919 264.780887 238.680919s264.780887-98.120816 264.780887-238.680919l0-296.102246L410.248779 181.112779c-20.879574 0-37.826126-16.945553-37.826126-37.825128s16.946552-37.826126 37.826126-37.826126l466.545528 0c2.571745-6.05234 4.310544-12.63401 4.310544-19.820914L881.104852 45.469453z"  horiz-adv-x="1024" />

    
    <glyph glyph-name="xiangshang" unicode="&#58931;" d="M468.36 652.553 20.797 204.991c-24.753-24.753-24.753-64.788 0-89.541 24.681-24.682 64.788-24.753 89.541 0l402.792 402.792L915.922 115.45c24.682-24.682 64.787-24.753 89.541 0 24.752 24.753 24.68 64.788 0 89.541L557.9 652.553C533.148 677.234 493.113 677.234 468.36 652.553z"  horiz-adv-x="1025" />

    
    <glyph glyph-name="xiangxia" unicode="&#58932;" d="M467.231 115.447 19.669 563.009c-24.753 24.752-24.753 64.788 0 89.541 24.681 24.682 64.788 24.753 89.541 0l402.792-402.791L914.793 652.55c24.682 24.682 64.788 24.753 89.541 0 24.753-24.752 24.681-64.788 0-89.541L556.771 115.447C532.02 90.766 491.984 90.766 467.231 115.447z"  horiz-adv-x="1024" />

    
    <glyph glyph-name="yidiandiantubiao10" unicode="&#58902;" d="M482.257261 270.257261 263.435685 270.257261c-16.995851 0-29.742739 12.746888-29.742739 29.742739s12.746888 29.742739 29.742739 29.742739l220.946058 0 0 0L484.381743 548.564315c0 16.995851 12.746888 29.742739 29.742739 29.742739 16.995851 0 29.742739-12.746888 29.742739-29.742739l0-218.821577 0 0 220.946058 0c16.995851 0 29.742739-12.746888 29.742739-29.742739s-12.746888-29.742739-29.742739-29.742739L541.742739 270.257261l0 0 0-218.821577c0-16.995851-12.746888-29.742739-29.742739-29.742739-16.995851 0-29.742739 12.746888-29.742739 29.742739L482.257261 270.257261"  horiz-adv-x="1024" />

    
    <glyph glyph-name="tuichu" unicode="&#58884;" d="M951.737186 407.787776 802.424532 594.43064c-7.222495 9.027607-18.034748 14.011108-29.157064 14.011108-4.131087 0-8.300037-0.688685-12.349259-2.106987-14.957667-5.246491-24.970718-19.371186-24.970718-35.223223l0-111.98756-298.631448 0c-41.232077 0-74.656327-33.42425-74.656327-74.656327 0-41.2331 33.42425-74.656327 74.656327-74.656327l298.631448 0 0-111.98756c0-15.852036 10.013051-29.977755 24.970718-35.223223 4.049223-1.424442 8.218172-2.108011 12.349259-2.108011 11.123338 0 21.934568 4.978385 29.157064 14.013155l149.311631 186.643887C962.64563 374.778988 962.64563 394.151197 951.737186 407.787776L951.737186 407.787776zM586.628698 85.837226 362.66074 85.837226l-74.656327 0 0 0.011256c-0.199545 0-0.393973-0.011256-0.587378-0.011256-40.906665 0-74.076112 33.42425-74.076112 74.656327l0 74.656327 0 298.631448 0 74.656327 0.011256 0c0 0.199545-0.011256 0.393973-0.011256 0.587378 0 40.906665 33.429367 74.076112 74.66349 74.076112l74.656327 0 223.967958 0c41.2331 0 74.66349 33.422204 74.66349 74.656327 0 41.232077-33.429367 74.656327-74.66349 74.656327L213.340923 832.413799c-82.459037 0-149.311631-66.853617-149.311631-149.311631l0-597.262896c0-82.4662 66.853617-149.311631 149.311631-149.311631l373.286752 0c41.2331 0 74.66349 33.422204 74.66349 74.656327C661.291165 52.413999 627.861798 85.837226 586.628698 85.837226L586.628698 85.837226zM586.628698 85.837226"  horiz-adv-x="1024" />

    
    <glyph glyph-name="4" unicode="&#58919;" d="M633.333 268.191l96.357-96.343c26.607-26.604 26.607-69.733 0-96.34l-216.59-216.57c-26.61-26.601-69.742-26.601-96.353 0l-337.263 337.233c-26.61 26.607-26.61 69.733 0 96.384l216.551 216.523c26.607 26.607 69.739 26.607 96.349 0l96.357-96.34 308.412 308.415c26.61 26.607 69.742 26.607 96.353 0l48.173-48.17c26.613-26.601 26.613-69.736 0-96.34l-308.346-308.451zM151.509 268.191c-13.324-13.321-13.324-34.887 0-48.167l24.081-24.092 48.182 48.17 48.176-48.17-48.176-48.17 48.176-48.17 72.262 72.256 48.173-48.17-72.265-72.256 48.176-48.176 48.176 48.176 48.173-48.176-48.173-48.17 24.086-24.086c13.331-13.321 34.891-13.321 48.182 0l72.262 72.256-337.262 337.264-72.23-72.319zM881.549 636.835l-24.089 24.092c-6.644 6.641-17.443 6.641-24.092 0l-344.565-344.531-120.435 120.42c-13.321 13.321-34.891 13.321-48.173 0l-48.176-48.164 337.264-337.23 48.173 48.17c13.293 13.279 13.293 34.88 0 48.17l-120.438 120.429 344.565 344.531c6.606 6.673 6.606 17.44-0.035 24.113v0zM881.549 636.835z"  horiz-adv-x="1024" />

    
    <glyph glyph-name="checkboxchecked" unicode="&#59001;" d="M0 896l0-1024 1024 0L1024 896 0 896zM960-64 64-64 64 832l896 0L960-64zM768 672 448 352l-192 192-128-128 320-320 448 448L768 672z"  horiz-adv-x="1024" />

    
    <glyph glyph-name="leibieguanli" unicode="&#58945;" d="M390.4 384 185.6 384C118.5 384 64 438.5 64 505.6L64 710.4C64 777.5 118.5 832 185.6 832l204.9 0c67 0 121.6-54.5 121.6-121.6l0-204.9C512 438.5 457.5 384 390.4 384zM185.6 768c-31.7 0-57.6-25.8-57.6-57.6l0-204.9c0-31.7 25.8-57.6 57.6-57.6l204.9 0c31.7 0 57.6 25.8 57.6 57.6L448.1 710.4c0 31.7-25.8 57.6-57.6 57.6L185.6 768zM902.4 384 697.6 384c-67 0-121.6 54.5-121.6 121.6L576 710.4c0 67 54.5 121.6 121.6 121.6l204.9 0c67 0 121.6-54.5 121.6-121.6l0-204.9C1024 438.5 969.5 384 902.4 384zM697.6 768c-31.7 0-57.6-25.8-57.6-57.6l0-204.9c0-31.7 25.8-57.6 57.6-57.6l204.9 0c31.7 0 57.6 25.8 57.6 57.6L960.1 710.4c0 31.7-25.8 57.6-57.6 57.6L697.6 768zM390.4-128 185.6-128c-67 0-121.6 54.5-121.6 121.6L64 198.4c0 67 54.5 121.6 121.6 121.6l204.9 0c67 0 121.6-54.5 121.6-121.6l0-204.9C512-73.5 457.5-128 390.4-128zM185.6 256c-31.7 0-57.6-25.8-57.6-57.6l0-204.9c0-31.7 25.8-57.6 57.6-57.6l204.9 0c31.7 0 57.6 25.8 57.6 57.6L448.1 198.4c0 31.7-25.8 57.6-57.6 57.6L185.6 256zM902.4-128 697.6-128c-67 0-121.6 54.5-121.6 121.6L576 198.4c0 67 54.5 121.6 121.6 121.6l204.9 0c67 0 121.6-54.5 121.6-121.6l0-204.9C1024-73.5 969.5-128 902.4-128zM697.6 256c-31.7 0-57.6-25.8-57.6-57.6l0-204.9c0-31.7 25.8-57.6 57.6-57.6l204.9 0c31.7 0 57.6 25.8 57.6 57.6L960.1 198.4c0 31.7-25.8 57.6-57.6 57.6L697.6 256z"  horiz-adv-x="1025" />

    
    <glyph glyph-name="list4f" unicode="&#59066;" d="M384 832l640 0 0-128L384 704 384 832zM384 448l640 0 0-128L384 320 384 448zM384 64l640 0 0-128L384-64 384 64zM0 768A4 4 2520 1 0 256 768 4 4 2520 1 0 0 768zM0 384A4 4 2520 1 0 256 384 4 4 2520 1 0 0 384zM0 0A4 4 2520 1 0 256 0 4 4 2520 1 0 0 0z"  horiz-adv-x="1024" />

    
    <glyph glyph-name="mn03" unicode="&#58917;" d="M854.786 338.485c63.926 82.629 113.021 152.765 113.021 232.108 0 128.875-108.273 233.276-241.97 233.276s-241.97-104.473-241.97-233.276c0-71.232 42.082-139.249 97.095-212.747l-66.191-21.187-128.291 40.547c15.853 26.52 26.009 52.237 26.009 79.926 0 73.132-59.177 132.382-132.090 132.382-72.985 0-132.090-59.251-132.090-132.382 0-30.539 13.37-60.128 32.731-90.739l-0.585-0.073-180.454-403.722 272.655 102.867 248.107-102.867 232.911 102.867 269.148-102.867-168.035 375.886zM725.91 683.906c64.876 0 117.478-50.703 117.478-113.314s-52.675-113.387-117.478-113.387c-64.949 0-117.478 50.775-117.478 113.387s52.53 113.314 117.478 113.314zM280.472 521.424c35.36 0 64.145-28.785 64.145-64.291 0-35.434-28.785-64.291-64.145-64.291-35.433 0-64.145 28.858-64.145 64.291 0 35.505 28.712 64.291 64.145 64.291zM748.997 126.615l-228.381-98.921-243.431 98.921-181.551-82.703 104.035 268.417 16.95 3.214c20.675-27.616 43.25-56.766 63.853-89.131 25.643 40.985 52.603 75.032 75.616 106.3l158.83-50.995 99.433 32.365c36.383-46.684 75.543-95.926 111.487-150.208 33.68 51.726 68.529 96.876 101.187 138.738l104.912-261.988-182.939 85.99zM50.298 895.847v0zM0.357 836.48v0zM0.357-68.48v0zM50.298-127.847v0zM975.867 895.847v0zM1025.808 836.48v0zM1025.808-68.48v0zM975.867-127.847v0z"  horiz-adv-x="1026" />

    
    <glyph glyph-name="iccompany" unicode="&#58906;" d="M95.328 819.104l37.152 0 0-833.184-37.152 0 0 833.184zM502.688 819.104l37.152 0 0-833.184-37.152 0 0 833.184zM21.344-14.016l981.344 0 0-37.152-981.344 0 0 37.152zM95.392 819.168l444.448 0 0-37.152-444.448 0 0 37.152zM947.104-14.08l-37.12 0 0 583.648 37.12-9.696 0-573.984zM909.984 569.568l0-38.272-370.176 96.576 0 38.208 370.176-96.512zM187.968 670.976l20 0 0-111.072-20 0 0 111.072zM279.072 670.976l20 0 0-111.072-20 0 0 111.072zM187.968 670.976l111.104 0 0-20-111.104 0 0 20zM187.968 579.904l111.104 0 0-20-111.104 0 0 20zM336.096 670.976l20 0 0-111.072-20 0 0 111.072zM427.2 670.976l20 0 0-111.072-20 0 0 111.072zM336.096 670.976l111.072 0 0-20-111.072 0 0 20zM336.096 579.904l111.072 0 0-20-111.072 0 0 20zM187.968 522.848l20 0 0-111.104-20 0 0 111.104zM279.072 522.848l20 0 0-111.104-20 0 0 111.104zM187.968 522.848l111.104 0 0-20-111.104 0 0 20zM187.968 431.744l111.104 0 0-20-111.104 0 0 20zM336.096 522.848l20 0 0-111.104-20 0 0 111.104zM427.2 522.848l20 0 0-111.104-20 0 0 111.104zM336.096 522.848l111.072 0 0-20-111.072 0 0 20zM336.096 431.744l111.072 0 0-20-111.072 0 0 20zM187.968 374.752l20 0 0-111.104-20 0 0 111.104zM279.072 374.752l20 0 0-111.104-20 0 0 111.104zM187.968 374.752l111.104 0 0-20-111.104 0 0 20zM187.968 283.648l111.104 0 0-20-111.104 0 0 20zM336.096 374.752l20 0 0-111.104-20 0 0 111.104zM427.2 374.752l20 0 0-111.104-20 0 0 111.104zM336.096 374.752l111.072 0 0-20-111.072 0 0 20zM336.096 283.648l111.072 0 0-20-111.072 0 0 20zM187.968 226.592l20 0 0-111.072-20 0 0 111.072zM279.072 226.592l20 0 0-111.072-20 0 0 111.072zM187.968 226.592l111.104 0 0-20-111.104 0 0 20zM187.968 135.552l111.104 0 0-20-111.104 0 0 20zM336.096 226.592l20 0 0-111.072-20 0 0 111.072zM427.2 226.592l20 0 0-111.072-20 0 0 111.072zM336.096 226.592l111.072 0 0-20-111.072 0 0 20zM336.096 135.552l111.072 0 0-20-111.072 0 0 20zM595.296 522.848l20 0 0-111.104-20 0 0 111.104zM686.432 522.848l20 0 0-111.104-20 0 0 111.104zM595.296 522.848l111.072 0 0-20-111.072 0 0 20zM595.296 431.744l111.072 0 0-20-111.072 0 0 20zM763.424 411.744l-19.968 0 0 111.104 20-6.688-0.032-104.416zM854.592 411.744l-20.032 0 0 80.736 20-6.688 0-74.048zM834.56 492.48l0-19.488-71.136 23.68 0 19.52 71.136-23.712zM743.456 431.744l111.072 0 0-20-111.072 0 0 20zM595.296 374.688l20 0 0-111.072-20 0 0 111.072zM686.432 374.688l20 0 0-111.072-20 0 0 111.072zM595.296 374.688l111.072 0 0-20-111.072 0 0 20zM595.296 283.616l111.072 0 0-20-111.072 0 0 20zM743.456 374.688l20 0 0-111.072-20 0 0 111.072zM834.56 374.688l20 0 0-111.072-20 0 0 111.072zM743.456 374.688l111.072 0 0-20-111.072 0 0 20zM743.456 283.616l111.072 0 0-20-111.072 0 0 20zM595.296 226.592l20 0 0-111.072-20 0 0 111.072zM686.432 226.592l20 0 0-111.072-20 0 0 111.072zM595.296 226.592l111.072 0 0-20-111.072 0 0 20zM595.296 135.552l111.072 0 0-20-111.072 0 0 20zM743.456 226.592l20 0 0-111.072-20 0 0 111.072zM834.56 226.592l20 0 0-111.072-20 0 0 111.072zM743.456 226.592l111.072 0 0-20-111.072 0 0 20zM743.456 135.552l111.072 0 0-20-111.072 0 0 20z"  horiz-adv-x="1024" />

    
    <glyph glyph-name="iconset0211" unicode="&#58990;" d="M512 554.666667c-23.466667 0-42.666667-19.2-42.666667-42.666667l21.333333-234.666667c0-12.8 8.533333-21.333333 21.333333-21.333333s21.333333 8.533333 21.333333 21.333333l21.333333 234.666667C554.666667 535.466667 535.466667 554.666667 512 554.666667zM512 213.333333c-23.466667 0-42.666667-19.2-42.666667-42.666667s19.2-42.666667 42.666667-42.666667 42.666667 19.2 42.666667 42.666667S535.466667 213.333333 512 213.333333zM970.666667 128l-384 597.333333c0 0-19.2 42.666667-74.666667 42.666667-51.2 0-74.666667-42.666667-74.666667-42.666667l-384-597.333333c0 0-10.666667-14.933333-10.666667-42.666667 0-46.933333 38.4-85.333333 85.333333-85.333333l768 0c46.933333 0 85.333333 38.4 85.333333 85.333333C981.333333 115.2 970.666667 128 970.666667 128zM896 42.666667 128 42.666667c-23.466667 0-42.666667 19.2-42.666667 42.666667 0 8.533333 2.133333 14.933333 2.133333 17.066667 0 0 0 0 2.133333 2.133333l384 597.333333c0 0 2.133333 2.133333 2.133333 2.133333 0 0 12.8 21.333333 36.266667 21.333333 25.6 0 34.133333-17.066667 36.266667-19.2 0-2.133333 2.133333-2.133333 2.133333-6.4l384-597.333333c0 0 2.133333-2.133333 2.133333-2.133333 0-2.133333 2.133333-6.4 2.133333-17.066667C938.666667 61.866667 919.466667 42.666667 896 42.666667z"  horiz-adv-x="1024" />

    
    <glyph glyph-name="check04" unicode="&#58982;" d="M306.379411 480.078219l-69.704548-69.706595 224.074382-224.081545 497.956146 497.961262-69.706595 69.705572L460.749244 328.214463 306.379411 480.078219 306.379411 480.078219zM859.115184 36.904771 161.97658 36.904771 161.97658 734.044398l497.960239 0L659.936819 833.634604 161.97658 833.634604c-54.775534 0-99.590206-44.814672-99.590206-99.590206l0-697.139627c0-54.781674 44.814672-99.590206 99.590206-99.590206l697.138604 0c54.781674 0 99.590206 44.808532 99.590206 99.590206L958.70539 435.271734l-99.590206 0L859.115184 36.904771 859.115184 36.904771zM859.115184 36.904771"  horiz-adv-x="1024" />

    
    <glyph glyph-name="bianhaonumbered5" unicode="&#58964;" d="M394.50624 625.50016c0 13.17888 10.69056 23.8592 23.8592 23.8592l392.32512 0c13.16864 0 23.8592-10.68032 23.8592-23.8592 0-13.17888-10.68032-23.8592-23.8592-23.8592L418.36544 601.64096C405.1968 601.64096 394.50624 612.32128 394.50624 625.50016zM418.36544 484.99712l254.49472 0c13.17888 0 23.8592 10.68032 23.8592 23.8592s-10.68032 23.8592-23.8592 23.8592L418.36544 532.71552c-13.16864 0-23.8592-10.67008-23.8592-23.8592S405.1968 484.99712 418.36544 484.99712zM810.69056 233.17504 418.36544 233.17504c-13.16864 0-23.8592-10.68032-23.8592-23.8592 0-13.17888 10.69056-23.8592 23.8592-23.8592l392.32512 0c13.16864 0 23.8592 10.68032 23.8592 23.8592C834.54976 222.50496 823.8592 233.17504 810.69056 233.17504zM672.84992 116.54144 418.36544 116.54144c-13.16864 0-23.8592-10.67008-23.8592-23.8592s10.69056-23.8592 23.8592-23.8592l254.49472 0c13.17888 0 23.8592 10.68032 23.8592 23.8592S686.0288 116.54144 672.84992 116.54144zM246.74304 473.27232l37.87776 0L284.6208 665.18016l-31.01696 0c-0.88064-10.02496-0.11264-18.08384-7.94624-24.15616-7.8336-6.07232-24.29952-9.10336-39.17824-9.10336l-5.40672 0 0-26.53184 45.6704 0L246.74304 473.27232zM232.76544 105.61536l47.5648 35.3792c16.39424 11.264 27.16672 21.7088 32.32768 31.34464 5.16096 9.63584 7.7312 19.99872 7.7312 31.08864 0 18.13504-6.06208 32.75776-18.16576 43.88864-12.11392 11.13088-28.02688 16.6912-47.75936 16.6912-19.02592 0-34.24256-5.632-45.64992-16.896-11.4176-11.264-17.11104-28.24192-17.11104-50.95424l36.68992 0c0 13.55776 2.39616 22.92736 7.19872 28.11904 4.79232 5.19168 11.3664 7.79264 19.73248 7.79264s14.98112-2.64192 19.8656-7.91552 7.3216-11.83744 7.3216-19.67104c0-7.8336-2.26304-14.90944-6.79936-21.248-4.52608-6.33856-17.13152-17.02912-37.81632-32.07168-17.68448-12.94336-40.86784-28.70272-48.03584-40.1408l-0.4096-38.92224 131.33824 0 0 33.52576L232.76544 105.6256z"  horiz-adv-x="1024" />

    
    <glyph glyph-name="qian" unicode="&#58950;" d="M261.944386 207.182922l482.947314 0L744.891699 630.924809 261.944386 630.924809 261.944386 207.182922zM510.907621 421.845956l149.274792 0c0 0 25.299199-16.925485 0-34.590819L510.907621 387.255137C510.907621 387.255137 491.310284 405.284769 510.907621 421.845956zM667.883815 317.911816l-113.071242 0.161682c-32.999578 23.184025 8.182356 34.590819 8.182356 34.590819l92.865038-0.215918C690.652378 346.820216 667.883815 317.911816 667.883815 317.911816zM660.182412 456.436776 510.907621 456.436776c0 0-20.110013 14.715143 0 35.437094l149.274792-0.847298C660.182412 491.026572 685.993265 473.188298 660.182412 456.436776zM510.907621 560.209234l149.812027-0.284479c0 0 24.505114-16.934694-0.537236-34.305317L510.907621 525.619438C510.907621 525.618415 487.217059 543.097508 510.907621 560.209234zM405.536758 430.493917c0 0-51.29527 1.772366-74.831312 35.797297 0 0-12.535501 20.466124 4.349051 46.304605 0 0 14.582113 21.493523 43.490513 30.317493l0.649799 25.943882 26.342971 0 0-25.943882 17.561981 0c0 0 21.768793-0.620124 26.341948-8.646937l0-25.943882-8.78099 0 0-8.647961-17.560958 0 0 8.647961-35.123962 0c0 0-30.834262-18.922978-3.545756-29.15604 0 0 13.302981-4.881171 22.128997-5.585205 0 0 16.949021-2.430352 31.722492-11.83249 0 0 12.638855-6.909363 19.942191-22.60995l0-51.885717c0 0-28.763091-29.424146-52.68492-25.942859l0-34.590819-26.566052 0 0.223081 34.590819-52.685943 0c0 0-16.73208 15.878642 0 34.590819l79.028914 0C405.536758 395.903098 417.946392 406.720468 405.536758 430.493917zM512.001535 837.983655c-246.99951 0-447.231881-200.231347-447.231881-447.230857s200.23237-447.230857 447.231881-447.230857c246.998487 0 447.228811 200.23237 447.228811 447.230857S759.000022 837.983655 512.001535 837.983655zM788.796652 120.706385l-52.683896 60.532655-8.779967 0-35.123962-60.532655-35.123962 60.532655-8.782014 0-35.121915-60.532655-26.341948 60.532655-8.782014 0-35.123962-60.532655-26.341948 60.532655-8.779967 0-35.122939-60.532655-35.124985 60.532655-8.779967 0-35.123962-60.532655-26.342971 60.532655-8.78099 0-26.342971-60.532655-43.903929 60.532655-8.78099 0-52.68492-60.532655L226.82247 630.924809c0 0-2.526543 43.23878 35.123962 43.23878l491.729328 0c0 0 35.121915-5.647627 35.121915-43.23878L788.797675 120.706385z"  horiz-adv-x="1024" />

    
    <glyph glyph-name="add" unicode="&#58958;" d="M876.089 456.818h-291.271v291.271c0 40.268-32.549 72.818-72.818 72.818s-72.818-32.549-72.818-72.818v-291.271h-291.271c-40.268 0-72.818-32.549-72.818-72.818s32.549-72.818 72.818-72.818h291.271v-291.271c0-40.268 32.549-72.818 72.818-72.818s72.818 32.549 72.818 72.818v291.271h291.271c40.268 0 72.818 32.549 72.818 72.818s-32.549 72.818-72.818 72.818z"  horiz-adv-x="1024" />

    
    <glyph glyph-name="upgrade" unicode="&#58979;" d="M835.366805 559.243233c0 0-19.36914 296.420083-323.369875 296.420083-310.786279 0-323.365782-296.420083-323.365782-296.420083S0 542.007687 0 343.665363c0-215.263715 242.524592-215.578894 242.524592-215.578894s26.948769-3.157923 26.948769 26.946722c0 28.42233-26.948769 26.948769-26.948769 26.948769S53.894468 185.085648 53.894468 343.665363c0 161.2618 188.629101 161.683403 188.629101 161.683403S237.183957 801.767825 511.99693 801.767825c266.657222 0 269.474384-296.41906 269.474384-296.41906s188.632171-4.264117 188.632171-161.683403c0-159.474085-188.632171-161.683403-188.632171-161.683403s-26.946722 4.236488-26.946722-26.948769 26.946722-26.946722 26.946722-26.946722 242.524592 0.315178 242.524592 215.578894C1023.995907 530.796344 835.366805 559.243233 835.366805 559.243233zM656.024208 119.929696l-117.076462-117.078509L538.947745 289.769872c0 0 0.893346 26.946722-26.949792 26.946722-27.840068 0-26.945699-26.946722-26.945699-26.946722l0-287.074228-117.025297 117.444852c0 0-17.449417 18.735713-36.107359 0-18.682501-18.736736 0-36.262902 0-36.262902l155.281599-155.884326c0.347924-0.677429 0.732687-1.358951 1.167592-2.043542 2.464121-4.946662 6.771217-9.876951 14.258749-12.144598 3.768837-1.459235 7.373944-1.699712 10.647501-1.25662 13.933337 0.455371 20.310581 8.234545 23.217794 15.321964l155.794275 155.796322c0 0 18.73776 17.526165 0 36.263925C673.54935 138.664386 656.024208 119.929696 656.024208 119.929696z"  horiz-adv-x="1040" />

    
    <glyph glyph-name="date1" unicode="&#58974;" d="M491.692488 424.614l-81.225953 0 0-81.225953 81.225953 0L491.692488 424.614zM491.692488 282.467559l-81.225953 0 0-81.225953 81.225953 0L491.692488 282.467559zM613.531418 140.322142l-81.225953 0 0-81.225953 81.225953 0L613.531418 140.322142zM613.531418 282.467559l-81.225953 0 0-81.225953 81.225953 0L613.531418 282.467559zM857.210299 424.614l-81.226976 0 0-81.225953 81.225953 0L857.210299 424.614 857.210299 424.614zM857.210299 282.467559l-81.226976 0 0-81.225953 81.225953 0L857.210299 282.467559 857.210299 282.467559zM735.370347 424.614l-81.225953 0 0-81.225953 81.225953 0L735.370347 424.614zM735.370347 282.467559l-81.225953 0 0-81.225953 81.225953 0L735.370347 282.467559zM613.531418 424.614l-81.225953 0 0-81.225953 81.225953 0L613.531418 424.614zM248.01463 140.322142l-81.225953 0 0-81.225953 81.225953 0L248.01463 140.322142zM248.01463 424.614l-81.225953 0 0-81.225953 81.225953 0L248.01463 424.614zM248.01463 282.467559l-81.225953 0 0-81.225953 81.225953 0L248.01463 282.467559zM877.515764 749.517811 796.289812 749.517811 796.289812 810.437276c0 11.205203-9.083889 20.306488-20.306488 20.306488-11.223622 0-20.306488-9.101285-20.306488-20.306488l0-60.919465L268.321118 749.517811 268.321118 810.437276c0 11.205203-9.083889 20.306488-20.306488 20.306488-11.223622 0-20.306488-9.101285-20.306488-20.306488l0-60.919465-81.225953 0c-44.856627 0-81.225953-36.369326-81.225953-81.246419l0-121.818463 0-40.612976 0-487.35674c0-44.856627 36.369326-81.225953 81.225953-81.225953l731.034599 0c44.856627 0 81.225953 36.369326 81.225953 81.225953L958.74274 505.839953l0 40.612976L958.74274 668.271392C958.74274 713.148485 922.373415 749.517811 877.515764 749.517811M918.129764 18.483212c0-22.418592-18.205641-40.612976-40.612976-40.612976L146.481166-22.129764c-22.408359 0-40.612976 18.194384-40.612976 40.612976L105.868189 505.839953l812.260551 0L918.129764 18.483212 918.129764 18.483212zM918.129764 546.452929 105.868189 546.452929 105.868189 668.271392c0 22.439058 18.204617 40.633443 40.612976 40.633443l81.225953 0 0-60.919465c0-11.233855 9.082866-20.306488 20.306488-20.306488 11.222599 0 20.306488 9.072633 20.306488 20.306488l0 60.919465 487.35674 0 0-60.919465c0-11.233855 9.082866-20.306488 20.306488-20.306488 11.222599 0 20.306488 9.072633 20.306488 20.306488l0 60.919465 81.225953 0c22.407336 0 40.612976-18.194384 40.612976-40.633443L918.129764 546.452929 918.129764 546.452929zM369.853559 282.467559 288.627606 282.467559l0-81.225953 81.225953 0L369.853559 282.467559zM369.853559 424.614 288.627606 424.614l0-81.225953 81.225953 0L369.853559 424.614zM369.853559 140.322142 288.627606 140.322142l0-81.225953 81.225953 0L369.853559 140.322142zM491.692488 140.322142l-81.225953 0 0-81.225953 81.225953 0L491.692488 140.322142z"  horiz-adv-x="1024" />

    
    <glyph glyph-name="icon-user" unicode="&#58940;" d="M248.384 631.872c0 145.856 118.016 264.128 263.616 264.128s263.616-118.272 263.616-264.128-118.016-264.128-263.616-264.128-263.616 118.272-263.616 264.128zM972.8-128c-11.456 245.056-213.376 428.736-460.8 428.736s-449.344-183.68-460.8-428.736h921.6z"  horiz-adv-x="1024" />

    
    <glyph glyph-name="kaishixuncha" unicode="&#58898;" d="M941.113221 75.381084l-161.223938 161.193239c-20.355607 20.35663-51.003628 24.080441-75.123978 11.223622l-30.197766 30.217209c46.227858 58.418504 73.832566 132.249023 73.832566 212.541721 0 189.335183-153.448858 342.783017-342.78404 342.783017s-342.78404-153.447834-342.78404-342.783017c0-189.335183 153.448858-342.783017 342.78404-342.783017 80.298837 0 154.135496 27.609825 212.556047 73.842799l30.210046-30.201859c-12.866029-24.13877-9.151427-54.831816 11.181667-75.160817l161.227008-161.193239c24.904203-24.904203 65.328891-24.904203 90.263793 0l30.05655 30.088272C966.052217 10.086985 966.052217 50.476881 941.113221 75.381084zM126.251426 490.555851c0 154.335041 125.029598 279.396361 279.365662 279.396361 154.334018 0 279.365662-125.06132 279.365662-279.396361S559.951105 211.15949 405.617088 211.15949C251.281023 211.15949 126.251426 336.22081 126.251426 490.555851zM626.616434 422.601156c18.237363 6.296403 27.915793 26.184359 21.621437 44.421722-19.495006 56.470129-95.293343 163.268504-242.621806 163.268504-147.325393 0-223.12373-106.798375-242.618736-163.268504-6.294356-18.237363 3.384074-38.125319 21.621437-44.421722 18.218944-6.296403 38.119179 3.38612 44.421722 21.621437 0.088004 0.25685 2.176572 6.071276 6.815219 14.962783 14.434757-80.603783 84.878133-141.827169 169.624259-141.827169 84.901669 0 155.448398 61.446467 169.704077 142.269237 4.455475-8.546653 6.661723-14.436804 7.060813-15.548114 5.03262-14.377452 18.530029-23.39892 32.966832-23.39892C618.994849 420.679387 622.841457 421.297464 626.616434 422.601156zM405.479965 346.455919c-78.409814 0-137.737014 41.913599-143.937227 150.368706 16.895809 19.491936 41.322128 39.773865 75.264171 52.05047-13.351076-15.733333-21.422915-36.083823-21.422915-58.319244 0-49.808406 40.423665-90.233094 90.233094-90.233094 49.806359 0 90.233094 40.424688 90.233094 90.233094 0 22.282492-8.107655 42.671868-21.509896 58.419528 32.963763-11.838629 56.951083-31.199583 73.77526-50.135864C542.361495 394.995425 484.137419 346.455919 405.479965 346.455919z"  horiz-adv-x="1024" />

    
    <glyph glyph-name="yanghuxiangmu" unicode="&#58933;" d="M927.713538 1.182174l-42.898019 0L540.923238 811.538353c-5.282307 12.414751-17.304108 19.739577-29.833469 19.476587-13.735839 1.677199-27.476795-5.740748-33.230845-19.061125L123.063315 1.182174 96.286462 1.182174c-17.656125 0-31.983435-14.293541-31.983435-31.949666 0-17.623379 14.32731-31.949666 31.983435-31.949666l41.683355 0c3.900843-0.722454 7.835456-0.704035 11.617595 0l778.126126 0c17.656125 0 31.982412 14.326287 31.982412 31.949666C959.69595-13.111366 945.369663 1.182174 927.713538 1.182174zM360.628966 384.508583 652.941498 384.508583c0.019443 0 0.036839 0.001023 0.055259 0.001023l67.777663-159.716608L290.737152 224.792998 360.628966 384.508583zM509.058506 723.696726l116.829845-275.306206-237.304707 0L509.058506 723.696726zM262.789637 160.929482l485.086024 0 67.790966-159.747307L192.883497 1.182174 262.789637 160.929482z"  horiz-adv-x="1024" />

    
    <glyph glyph-name="chaxun" unicode="&#58883;" d="M933.602 64.53 721.175 278.738c-2.472 2.479-5.204 4.372-7.813 6.435 35.884 55.518 56.836 121.647 56.836 192.878 0 195.694-157.298 354.31-351.461 354.31-194.054 0-351.461-158.616-351.461-354.31 0-195.722 157.407-354.302 351.461-354.302 70.631 0 136.303 21.179 191.459 57.361 2.009-2.692 3.852-5.369 6.283-7.827l212.454-214.235c14.506-14.579 33.396-21.849 52.314-21.849 18.932 0 37.836 7.268 52.328 21.814C962.436-11.824 962.436 35.39 933.602 64.53M418.737 235.63c-132.562 0-240.468 108.767-240.468 242.421 0 133.634 107.907 242.428 240.468 242.428 132.561 0 240.467-108.794 240.467-242.428C659.204 344.398 551.298 235.63 418.737 235.63"  horiz-adv-x="1024" />

    
    <glyph glyph-name="zhuangtai" unicode="&#58929;" d="M1020.032 446.912c-16.64 135.68-85.376 256.704-193.472 340.736-108.096 84.096-242.624 121.216-378.816 104.384C308.928 875.008 185.408 803.584 101.76 693.952L91.2 780.032c-1.408 11.712-12.096 20.032-23.872 18.56C55.488 797.184 47.232 786.496 48.64 774.784l18.496-150.272C67.008 623.104 66.624 621.824 66.816 620.352 68.224 608.64 78.912 600.32 90.688 601.792l153.344 18.88c1.024 0.128 1.984 0.32 2.944 0.576C257.152 623.936 264 633.792 262.72 644.48 261.248 656.192 250.56 664.512 238.848 663.04l-111.36-17.664C203.008 755.2 320.32 827.328 453.632 843.712c123.2 15.168 244.928-18.432 342.72-94.464 97.792-76.096 160-185.6 175.04-308.288 31.168-253.44-150.464-484.928-404.864-516.352-254.4-31.296-486.72 149.44-517.824 402.88C47.296 339.008 30.72 346.752 18.944 345.28 7.168 343.808-1.152 333.184 0.256 321.472c34.368-280.128 291.136-479.808 572.288-445.248 24.128 3.008 47.744 7.616 70.656 13.696C886.464-44.992 1051.52 190.912 1020.032 446.912L1020.032 446.912zM554.624 612.48c0 14.848-11.456 26.88-25.536 26.88-14.144 0-25.536-12.032-25.536-26.88l0-280.768L314.24 265.216c-12.8-6.272-18.304-22.272-12.288-35.712 5.952-13.44 21.184-19.2 33.984-12.928l203.52 71.552c9.728 4.8 15.168 15.168 14.592 25.792 0.128 1.088 0.576 1.984 0.576 3.072L554.624 612.48 554.624 612.48zM554.624 612.48"  horiz-adv-x="1025" />

    
    <glyph glyph-name="xunjianrenyuan" unicode="&#58941;" d="M326.731948 315.422112c-54.56371-27.701922-101.202936-63.781652-101.202936-99.585089l0-18.565844c0-38.343283 101.105722-71.38277 101.105722-71.38277l39.070854 4.948709-3.493567-0.097214C362.213044 130.740926 329.448826 316.76469 326.731948 315.422112zM622.286314 623.170195c0 87.570451-119.185496 131.298372-119.185496 131.298372-16.883529 7.616468-33.605376 5.90243-50.909483 0 0 0-119.217219-38.392402-119.217219-131.298372 0-13.843286-25.131377-10.883885-33.475416-54.773488l356.295775 0C640.65773 612.577952 622.286314 609.326908 622.286314 623.170195zM578.558393 131.176854l7.017834 0.178055c-1.034563 0.12996-3.330862 0.388856-6.856152 0.792039C578.655607 131.872702 578.558393 131.176854 578.558393 131.176854zM628.464013 315.357644c-3.266393 1.585101-34.542724-183.824679-34.542724-183.824679l-8.345062-0.178055c0.420579-0.048095 1.358951-0.178055 1.358951-0.178055l42.013883-5.385661c0 0 100.945063 32.990369 100.945063 71.479985l0 18.565844C729.894124 252.385427 683.868881 288.237983 628.464013 315.357644zM603.721493 324.494745c-14.716166 6.324032-29.465079 13.923104-44.148499 18.808368-3.622504 1.179872-26.715455 11.577686-12.323677 55.371098l-0.226151 0c34.024931 34.882462 57.960063 68.956511 57.960063 144.316873L351.151104 542.991084c0-76.136028 23.384593-109.903086 57.506738-144.752802 14.813381-38.618553-11.57871-52.962236-17.141402-54.93517-14.877849-5.40101-24.839735-11.837606-39.97648-18.808368-2.716878-1.245364 23.642466-182.044126 25.163099-192.3304 9.444093 1.100054 26.327622 2.944052 45.022403 4.511757l55.372122-97.110735 56.794517 97.095385c18.630313-1.585101 35.449373-3.411703 44.828998-4.511757C580.207963 142.351358 607.376743 323.005834 603.721493 324.494745zM365.705588 130.837116l11.126408 0.339738c0 0-0.128937 0.695848-0.128937 0.986467-4.915963-0.565888-8.344039-0.986467-8.344039-0.986467L365.705588 130.837116z"  horiz-adv-x="1024" />

    
    <glyph glyph-name="right" unicode="&#59016;" d="M302.848-128 209.152-34.56 627.712 384 209.152 802.304 302.848 896 814.848 384Z"  horiz-adv-x="1024" />

    
    <glyph glyph-name="dituleiwanggequ" unicode="&#59837;" d="M864 896l-768 0C43.008 896 0 852.992 0 800l0-768C0-20.992 43.008-64 96-64l768 0c52.992 0 96 43.008 96 96l0 768C960 852.992 916.992 896 864 896zM896 32c0-17.664-14.336-32-32-32l-768 0C78.336 0 64 14.336 64 32l0 768C64 817.664 78.336 832 96 832l768 0C881.664 832 896 817.664 896 800L896 32zM704 768l-64 0 0-128L512 640 512 768 448 768l0-128L320 640 320 768 256 768l0-128L128 640l0-64 128 0 0-128L128 448l0-64 128 0 0-128L128 256l0-64 128 0 0-128 64 0 0 128 128 0 0-128 64 0 0 128 128 0 0-128 64 0 0 128 128 0 0 64-128 0L704 384l128 0L832 448l-128 0L704 576l128 0L832 640l-128 0L704 768zM320 576l128 0 0-128L320 448 320 576zM320 256 320 384l128 0 0-128L320 256zM640 256 512 256 512 384l128 0L640 256zM640 448 512 448 512 576l128 0L640 448z"  horiz-adv-x="1024" />

    
    <glyph glyph-name="caozuo" unicode="&#59320;" d="M905.563 235.176c-33.775 33.775-77.953 50.196-122.213 50.196-7.248 0-14.499-0.442-21.708-1.318l-129.023 129.023c16.551 37.063 25.954 78.017 25.954 121.231 0 164.519-133.371 297.886-297.886 297.886-45.32 0-87.805-10.9-126.259-29.003l197.427-197.427-140.425-140.424-198.079 198.078c-18.981-39.2-30.551-82.635-30.551-129.111 0-164.516 133.367-297.886 297.886-297.886 43.214 0 84.168 9.403 121.231 25.954l129.023-129.023c-6.23-51.214 9.57-104.614 48.878-143.922 33.93-33.93 78.402-50.893 122.873-50.893 44.469 0 88.941 16.963 122.871 50.893 67.86 67.861 67.86 177.885 0 245.745zM870.457 24.537c-23.442-23.442-54.612-36.351-87.766-36.351-33.157 0-64.326 12.909-87.768 36.351-26.748 26.748-39.393 64.227-34.699 102.823l2.922 24.003-172.443 172.443c-14.899-9.233-30.854-16.645-47.621-22.594-25.912-9.196-53.368-15.142-82.396-15.142-136.879 0-248.239 111.359-248.239 248.239 0 12.303 0.991 24.594 2.963 36.836l176.019-176.019 210.639 210.639-174.426 174.425c10.978 1.57 22.003 2.358 33.042 2.358 136.879 0 248.239-111.359 248.239-248.239 0-29.027-5.945-56.484-15.142-82.396-5.948-16.767-13.36-32.718-22.594-47.618l172.442-172.446 24.003 2.922c5.218 0.633 10.466 0.955 15.715 0.955 33.182 0 64.114-12.663 87.108-35.654 48.394-48.395 48.394-127.14 0.001-175.536z"  horiz-adv-x="1024" />

    
    <glyph glyph-name="shijian" unicode="&#58934;" d="M836.879252 18.510842l-40.623209 0L796.256042 124.874311c0 59.154261-59.33641 108.910479-115.690906 157.030429-19.591197 16.72594-46.74872 41.527812-56.900941 53.077869l0 98.03478c10.152221 11.550057 37.310767 36.351929 56.900941 53.077869 56.354496 48.119951 115.690906 97.876168 115.690906 157.030429L796.256042 749.490182l40.623209 0c22.426779 0 40.609906 18.183128 40.609906 40.609906S859.306031 830.709995 836.879252 830.709995L187.120748 830.709995c-22.425755 0-40.609906-18.183128-40.609906-40.609906s18.184151-40.609906 40.609906-40.609906l40.596604 0 0-106.36347c0-59.154261 59.33334-108.910479 115.692952-157.030429 19.586081-16.72594 46.747697-41.527812 56.899918-53.077869l0-98.03478c-10.152221-11.550057-37.313837-36.351929-56.899918-53.077869C287.049668 233.78479 227.717352 184.028573 227.717352 124.874311l0-106.36347-40.596604 0c-22.425755 0-40.609906-18.183128-40.609906-40.609906 0-22.426779 18.184151-40.609906 40.609906-40.609906l649.759527 0c22.426779 0 40.609906 18.183128 40.609906 40.609906C877.489158 0.327714 859.306031 18.510842 836.879252 18.510842zM308.937165 124.874311c0 21.703301 57.097416 69.555146 87.207178 95.263667 48.958038 41.794895 85.384669 71.994708 85.384669 110.442368L481.529011 437.419653c0 38.448684-36.426631 68.648496-85.384669 110.442368-30.109762 25.709545-87.207178 73.560366-87.207178 95.263667L308.937165 749.490182l406.099065 0 0-106.36347c0-21.707394-57.100486-69.555146-87.211271-95.263667-48.952922-41.794895-85.381599-71.994708-85.381599-110.442368l0-106.838284c0-38.448684 36.427654-68.648496 85.381599-110.442368 30.109762-25.709545 87.211271-73.556273 87.211271-95.263667l0-106.36347-406.099065 0L308.937165 124.874311zM603.358731 657.972838l0 20.662599c0 19.62599 15.907295 35.533284 35.533284 35.533284 19.62599 0 35.533284-15.908318 35.533284-35.533284l0-20.662599c0-19.62599-15.908318-35.533284-35.533284-35.533284C619.267049 622.439554 603.358731 638.347872 603.358731 657.972838z"  horiz-adv-x="1024" />

    
    <glyph glyph-name="login" unicode="&#59447;" d="M511.976 832C320.946 832 157.868 712.392 93.454 544l69.278 0c18.792 40.968 44.914 78.7 77.736 111.524C312.994 728.054 409.418 768 511.976 768c102.572 0 199.008-39.946 271.542-112.478C856.054 582.99 896 486.562 896 384c0-102.57-39.946-199.002-112.478-271.53C710.988 39.942 614.55 0 511.976 0c-102.562 0-198.986 39.942-271.51 112.468C207.642 145.292 181.52 183.028 162.724 224L93.45 224c64.412-168.402 227.492-288 418.528-288C759.406-64 960 136.57 960 384 960 631.404 759.406 832 511.976 832zM413.726 248.234 458.98 202.98 640 384 458.98 565.02 413.724 519.764 517.49 416 64 416 64 352 517.49 352Z"  horiz-adv-x="1024" />

    
    <glyph glyph-name="xingren" unicode="&#58926;" d="M539.282416 612.262877q-29.101243 0-55.019538 11.367673t-45.015986 30.465364-30.465364 45.015986-11.367673 55.019538 11.367673 55.019538 30.465364 45.015986 45.015986 30.465364 55.019538 11.367673 55.019538-11.367673 45.015986-30.465364 30.010657-45.015986 10.912966-55.019538-10.912966-55.019538-30.010657-45.015986-45.015986-30.465364-55.019538-11.367673zM741.172291 484.944938q24.554174-18.188277 40.468917-42.287744t15.914742-48.653641l0-90.031972q0-15.460036-17.73357-23.64476t-39.104796-8.184725-39.104796 7.730018-17.73357 25.008881l0 38.195382q0 13.641208-8.184725 20.461812t-16.369449 11.367673q-9.094139 4.547069-20.916519-4.092362t-11.82238-29.55595l0-240.085258q0-21.825933 14.550622-40.01421t35.46714-33.648313q18.188277-12.731794 30.920071-25.463588l30.010657-30.010657q5.456483-5.456483 4.092362-16.824156t-7.730018-24.099467-15.914742-25.463588-21.371226-20.007105-24.099467-7.275311-23.190053 11.82238q-16.369449 17.278863-26.373002 27.737123t-17.73357 18.642984-15.914742 15.460036-20.007105 20.007105q-23.64476 23.64476-40.468917 60.476021t-16.824156 73.207815l0 73.662522q-10.912966-13.641208-18.642984-21.825933t-17.73357-27.282416q-3.637655-7.275311-7.275311-19.097691t-6.820604-24.554174-5.001776-25.463588-1.818828-21.825933l0-75.48135q0-17.278863-17.73357-25.918295t-39.104796-8.184725-39.104796 10.003552-17.73357 28.646536l0 66.387211q0 35.46714 10.912966 62.749556t24.554174 58.202487q18.188277 41.833037 26.827709 67.296625t13.186501 35.46714q9.094139 20.916519 9.094139 37.285968l0 29.101243q-10.003552-6.365897-16.824156-11.82238t-18.642984-20.007105q-11.82238-13.641208-24.099467-17.73357t-38.650089-4.092362l-59.111901 0q-21.825933 0-32.284192 17.73357t-10.003552 38.650089 11.367673 38.650089 31.829485 17.73357l54.564831 0q10.912966 0 17.73357 2.728242t12.731794 8.184725 12.731794 12.731794 16.824156 16.369449q12.731794 10.912966 25.918295 32.284192t25.008881 43.197158q13.641208 25.463588 26.373002 54.564831 19.097691-0.909414 35.46714-1.818828 14.550622-0.909414 29.55595-1.364121t25.008881-0.454707 22.735346 0.454707 24.554174 1.364121q13.641208 0.909414 28.191829 1.818828 24.554174-15.460036 47.28952-28.191829 19.097691-11.82238 38.195382-22.735346t29.101243-18.188277z"  horiz-adv-x="1024" />

    
    <glyph glyph-name="minus-s" unicode="&#59147;" d="M256 448h576v-64h-576v64z"  horiz-adv-x="1024" />

    
    <glyph glyph-name="taizhang" unicode="&#58927;" d="M835.96858 832.340954H185.154303c-35.422337 0-64.2529-28.817252-64.2529-64.2529v-767.966212c0-35.436671 28.830563-64.2529 64.2529-64.252899h650.814277c35.422337 0 64.2529 28.817252 64.252899 64.252899v767.965188c0 35.436671-28.830563 64.253924-64.252899 64.253924z m-650.814277-56.720176h650.814277c4.153903 0 7.532724-3.378822 7.532724-7.532724v-64.793511H177.620554v64.793511c0 4.153903 3.378822 7.532724 7.533749 7.532724z m650.814277-783.032684H185.154303c-4.153903 0-7.532724 3.378822-7.532725 7.532724V646.573344h665.88075v-646.452526c-0.001024-4.153903-3.379845-7.532724-7.533748-7.532724zM482.187531 577.224567H283.278353c-31.268434 0-56.720175-25.438431-56.720176-56.720175v-84.748013c0-31.281744 25.451741-56.720175 56.720176-56.720175h198.908154c31.268434 0 56.720175 25.438431 56.720175 56.720175v84.748013c0.001024 31.281744-25.451741 56.720175-56.719151 56.720175zM283.278353 435.756379v84.748013h198.908154l0.027645-84.748013H283.278353zM759.196634 577.224567H621.467676c-15.675684 0-28.3606-12.698226-28.3606-28.3606 0-15.66135 12.684915-28.3606 28.3606-28.360599h137.728958c15.675684 0 28.3606 12.698226 28.3606 28.360599 0 15.662374-12.684915 28.3606-28.3606 28.3606zM759.196634 435.756379h-71.565489c-15.675684 0-28.359576-12.698226-28.359575-28.360599 0-15.66135 12.684915-28.359576 28.359575-28.359576h71.565489c15.675684 0 28.3606 12.698226 28.3606 28.359576 0 15.662374-12.684915 28.3606-28.3606 28.360599zM482.187531 269.05761H283.278353c-31.268434 0-56.720175-25.438431-56.720176-56.720176v-84.748012c0-31.281744 25.451741-56.720175 56.720176-56.720175h198.908154c31.268434 0 56.720175 25.438431 56.720175 56.720175v84.748012c0.001024 31.281744-25.451741 56.720175-56.719151 56.720176zM283.278353 127.589422v84.748012h198.908154l0.027645-84.748012H283.278353zM759.196634 269.05761H621.467676c-15.675684 0-28.3606-12.698226-28.3606-28.359576 0-15.66135 12.684915-28.359576 28.3606-28.359576h137.728958c15.675684 0 28.3606 12.698226 28.3606 28.359576 0 15.66135-12.684915 28.359576-28.3606 28.359576zM759.196634 127.589422h-71.565489c-15.675684 0-28.359576-12.698226-28.359575-28.359576 0-15.66135 12.684915-28.3606 28.359575-28.360599h71.565489c15.675684 0 28.3606 12.698226 28.3606 28.360599 0 15.66135-12.684915 28.359576-28.3606 28.359576z"  horiz-adv-x="1024" />

    
    <glyph glyph-name="jiankong2" unicode="&#58968;" d="M787.696-46.078H236.31c-21.694 0-39.385-40.96-39.385-40.96V-128H827.08v40.962c0 22.561-17.69 40.96-39.385 40.96zM905.853 896H118.151C52.921 896 0 840.939 0 773.122V199.68c0-67.834 52.921-122.878 118.151-122.878h275.697v-40.961c0-22.578 17.694-40.956 39.385-40.956H590.77c21.693 0 39.387 21.118 39.387 40.956V76.8h275.69c65.232 0 118.153 55.044 118.153 122.878V773.122C1024.006 840.94 971.079 896 905.853 896zM118.151 240.638c-21.693 0-39.379 18.384-39.379 40.962V773.122c0 22.562 17.692 40.957 39.38 40.957h787.703c21.687 0 39.38-18.401 39.38-40.957V281.6c0-22.578-17.692-40.962-39.38-40.962H118.15z m681.083 469.865l-129.69-134.884-90.31 93.922c-8.656 9.038-20.887 13.28-33.08 11.639-12.153-1.7-22.886-9.202-28.962-20.282L400.114 447.84l-48.462 126.036c-4.919 12.78-15.69 22.144-28.654 24.9-13.19 2.782-26.421-1.419-35.767-11.16L169.074 464.742c-15.383-16.004-15.383-41.923 0-57.92 15.386-16.002 40.308-16.002 55.696 0l75.924 78.962 56.576-147.145c5.617-14.578 18.767-24.557 33.845-25.64 0.922-0.057 1.847-0.098 2.73-0.098 14.08 0 27.155 7.821 34.193 20.64l131.963 240.156 81.691-84.959c15.386-15.997 40.31-15.997 55.692 0l157.544 163.844c15.382 15.999 15.382 41.915 0 57.92-15.385 16-40.307 16-55.694 0.002z"  horiz-adv-x="1024" />

    
    <glyph glyph-name="dingwei" unicode="&#58905;" d="M512.789409-128S156.234477 326.95223 156.234477 521.976153c0 194.989948 159.651417 353.069543 356.554932 353.069542 196.886527 0 356.527952-158.060609 356.527952-353.069542-0.001999-195.030917-356.527952-649.976153-356.527952-649.976153z m-3.699229 800.226612c-83.804229 0-151.769321-67.288599-151.769322-150.326402 0-82.991837 67.954101-150.282435 151.769322-150.282435 83.850194 0 151.785309 67.288599 151.785309 150.282435 0 83.01482-67.930119 150.326402-151.785309 150.326402z"  horiz-adv-x="1024" />

    
    <glyph glyph-name="CruiseShip" unicode="&#58920;" d="M618.666667 725.333333h-128v-85.333333H246.762667L149.333333 426.666667v-85.333334h704v85.333334zM396.096 640h-149.333333l-42.666667 106.666667h64zM764.565333 469.333333l-34.154666 42.666667H235.2l-19.477333-42.666667zM196.245333 426.666667l-1.898666-4.138667L192 384h618.666667v27.690667L798.677333 426.666667zM696.298667 554.666667l-34.133334 42.666666H274.197333l-19.498666-42.666666zM533.333333 640h98.133334l-33.557334 42.666667H533.333333zM789.333333 469.333333c-64 0-64-85.333333-106.666666-85.333333H256c-42.666667 0-42.666667 85.333333-85.333333 85.333333H85.333333l64-288c0-64.789333 52.522667-74.666667 117.333334-74.666666h456C787.456 106.666667 910.208 405.333333 938.666667 469.333333h-149.333334zM714.666667 309.333333m-32 0a32 32 0 1 1 64 0 32 32 0 1 1-64 0ZM608 309.333333m-32 0a32 32 0 1 1 64 0 32 32 0 1 1-64 0ZM501.333333 309.333333m-32 0a32 32 0 1 1 64 0 32 32 0 1 1-64 0ZM394.666667 309.333333m-32 0a32 32 0 1 1 64 0 32 32 0 1 1-64 0ZM288 309.333333m-32 0a32 32 0 1 1 64 0 32 32 0 1 1-64 0ZM132.736 256L149.333333 181.333333c0-64.789333 52.522667-74.666667 117.333334-74.666666h456c31.36 0 76.245333 69.909333 117.482666 149.333333H132.736zM938.666667 213.333333c-64 0-85.333333 42.666667-85.333334 42.666667s-21.333333-42.666667-85.333333-42.666667-85.333333 42.666667-85.333333 42.666667-21.333333-42.666667-85.333334-42.666667-85.333333 42.666667-85.333333 42.666667-21.333333-42.666667-85.333333-42.666667-85.333333 42.666667-85.333334 42.666667-21.333333-42.666667-85.333333-42.666667-85.333333 42.666667-85.333333 42.666667-21.333333-42.666667-85.333334-42.666667v-170.666666h853.333334v170.666666zM938.666667 128c-64 0-85.333333 42.666667-85.333334 42.666667s-21.333333-42.666667-85.333333-42.666667-85.333333 42.666667-85.333333 42.666667-21.333333-42.666667-85.333334-42.666667-85.333333 42.666667-85.333333 42.666667-21.333333-42.666667-85.333333-42.666667-85.333333 42.666667-85.333334 42.666667-21.333333-42.666667-85.333333-42.666667-85.333333 42.666667-85.333333 42.666667-21.333333-42.666667-85.333334-42.666667v-85.333333h853.333334v85.333333z"  horiz-adv-x="1024" />

    
    <glyph glyph-name="edit" unicode="&#58892;" d="M1014.642 745.228c-7.923-28.292-14.956-54.581-34.507-70.42-171.054-138.593-308.162-310.68-463.298-464.871-4.074-4.061-8.949-7.641-11.991-12.379-65.929-102.828-181.262-115.945-282.196-154.651-21.67-8.3-55.57 30.316-49.069 53.263 18.317 64.627 36.254 129.378 55.954 193.592 3.332 10.863 13.737 20.27 22.483 28.673 147.544 141.694 295.884 282.56 442.692 425.014 35.012 33.975 65.363 72.802 97.388 109.813 43.243 49.963 103.691 53.987 150.811 7.654 28.364-27.89 62.838-52.147 69.349-96.114 0.846-5.7 1.756-11.387 2.64-17.076 2.149-1.29-2.409-1.207-0.257-2.497v0zM746.265 697.966c-143.031-143.31-285.798-286.353-425.513-426.335 24.065-24.382 50.698-51.374 73.962-74.938 142.838 139.748 286.956 280.736 430.361 421.026-29.209 29.747-55.809 56.826-78.809 80.248v0zM780.431 758.532c35.534-34.035 66.499-63.695 103.078-98.73 6.533 8.912 12.87 19.914 21.406 28.782 61.69 64.018 61.828 63.88-3.146 125.401-1.389 1.318-2.658 2.784-4.08 4.063-17.97 16.119-36.193 16.301-53.943 0.005-20.473-18.801-40.525-38.055-63.316-59.521v0zM250.913 120.218c32.921 13.26 58.889 23.713 81.104 32.654-17.064 20.07-32.667 38.427-51.038 60.045-10.237-31.532-18.925-58.35-30.067-92.699v0zM457.325-114.618c-95.18 0-190.363-0.146-285.55 0.065-52.12 0.109-98.169 14.202-133.136 56.247-23.055 27.724-29.593 59.946-29.642 94.142-0.291 189.403-1.034 378.814 0.219 568.217 0.664 101.677 63.442 162.274 165.278 162.868 102.874 0.599 205.757 0.022 308.627 0.226 22.538 0.043 44.021-1.736 46.9-30.199 2.109-20.825-14.922-31.334-48.338-31.361-99.987-0.084-199.985 0.147-299.974-0.094-71.519-0.181-112.147-41.233-112.165-112.856-0.072-182.666-0.089-365.333-0.043-547.999 0.01-56.514 38.085-96.863 95.137-97.074 195.173-0.735 390.353-0.596 585.525-0.129 46.174 0.104 76.086 33.055 76.29 83.051 0.51 124.969 0.241 249.947 0.433 374.927 0.017 9.542-2.207 21.578 2.57 28.067 8.038 10.926 21.765 26.173 31.426 25.058 10.109-1.164 19.003-18.963 26.809-30.577 2.697-4.002 0.62-11.255 0.62-17.019 0.011-124.028 0.17-248.059-0.049-372.085-0.182-104.429-49.419-153.352-154.028-153.468-92.305-0.096-184.61-0.022-276.91-0.011v0zM457.325-114.618z"  horiz-adv-x="1024" />

    
    <glyph glyph-name="mubiao" unicode="&#58897;" d="M821.317835 413.866215l-44.798299 0c-12.799514 123.726929-113.061009 223.989447-236.788961 236.788961l0 42.664705c0 14.933107-12.799514 29.865191-29.865191 29.865191-17.065677 0-29.865191-12.799514-29.865191-29.865191l0-44.798299c-123.726929-12.799514-223.989447-113.061009-236.788961-236.788961l-40.531112 0c-14.933107 0-29.865191-12.799514-29.865191-29.865191s12.799514-29.865191 29.865191-29.865191l44.798299 0c12.799514-123.726929 113.061009-223.989447 236.788961-236.788961l0-44.798299c0-14.933107 12.799514-29.865191 29.865191-29.865191 17.065677 0 29.865191 12.799514 29.865191 29.865191l0 44.798299c123.726929 12.799514 223.989447 113.061009 236.788961 236.788961l44.798299 0c14.933107 0 29.865191 12.799514 29.865191 29.865191S838.384535 413.866215 821.317835 413.866215zM541.865191 177.077254l0 44.798299c0 14.933107-12.799514 29.865191-29.865191 29.865191-17.065677 0-29.865191-12.799514-29.865191-29.865191l0-44.798299c-91.729168 12.799514-166.391634 85.329411-179.191148 179.191148l44.798299 0c14.933107 0 29.865191 12.799514 29.865191 29.865191 0 17.065677-12.799514 29.865191-29.865191 29.865191L302.94366 415.998785c12.799514 91.729168 85.329411 166.391634 179.191148 179.191148l0-44.798299c0-14.933107 12.799514-29.865191 29.865191-29.865191 17.065677 0 29.865191 12.799514 29.865191 29.865191l0 44.798299c91.729168-12.799514 166.391634-85.329411 179.191148-179.191148l-44.798299 0c-14.933107 0-29.865191-12.799514-29.865191-29.865191 0-17.065677 12.799514-29.865191 29.865191-29.865191l44.798299 0C706.124256 262.406664 633.594359 189.876768 541.865191 177.077254z"  horiz-adv-x="1024" />

    
    <glyph glyph-name="pingjiabaogao" unicode="&#58899;" d="M75.463 300.897l142.976 0 0-367.813L75.463-66.916 75.463 300.897zM320.365 437.577l142.976 0 0-504.494L320.365-66.917 320.365 437.577 320.365 437.577zM577.79 359.33l142.976 0 0-426.462L577.79-67.132 577.79 359.33zM805.562 550.218l142.976 0 0-617.35L805.562-67.132 805.562 550.218zM877.052 835.445c-35.383 0-64.066-28.683-64.066-64.066 0-3.482 1.448-6.488 1.982-9.818L687.053 637.641c-9.949 6.355-21.09 10.988-33.772 10.988-24.626 0-45.339-14.351-56.064-34.72L452.244 642.46c-7.965 26.32-31.467 45.853-60.389 45.853-31.231 0-56.026-22.789-61.703-52.362l-145.173-87.04c-10.749 8.152-23.497 13.864-38.028 13.864-35.383 0-64.066-28.688-64.066-64.07s28.684-64.066 64.066-64.066c31.236 0 56.039 22.797 61.707 52.378l145.152 87.031c10.749-8.164 23.505-13.872 38.044-13.872 17.206 0 32.677 6.975 44.187 18.016l167.312-33.045c11.749-13.598 28.546-22.65 47.929-22.65 31.79 0 56.994 23.574 62.022 53.939l144.701 134.721c6.113-1.938 12.291-3.844 19.047-3.844 35.383 0 64.066 28.683 64.066 64.065C941.118 806.761 912.434 835.445 877.052 835.445z"  horiz-adv-x="1024" />

    
    <glyph glyph-name="detail" unicode="&#58895;" d="M870.1-127.978h-95.8c-18.8 0-34.1 15.2-34.1 34.1s15.2 34.2 34.2 34.2h95.8c47.3 0 85.8 38.3 85.8 85.4v716.4c0 47.3-38.2 85.7-85 85.7h-717.6c-46.8 0-85-38.2-85-85v-717.5c0-46.8 38.4-85 85.7-85h318.6c18.8 0 34.1-15.2 34.1-34.1 0-18.8-15.2-34.1-34.1-34.1h-318.7c-84.8 0-154 68.8-154 153.2v717.4c0 84.5 68.8 153.2 153.2 153.2h717.6c84.5 0 153.2-69 153.2-154v-716.4c0.1-84.5-69-153.5-153.9-153.5zM780.9 618.622h-537.6c-18.8 0-34.1 15.2-34.1 34.1s15.2 34.1 34.1 34.1h537.6c18.8 0 34.1-15.2 34.1-34.1s-15.3-34.1-34.1-34.1zM780.9 379.722h-537.6c-18.8 0-34.1 15.2-34.1 34.1s15.2 34.1 34.1 34.1h537.6c18.8 0 34.1-15.2 34.1-34.1 0-18.8-15.3-34.1-34.1-34.1zM482.2 140.822h-238.9c-18.8 0-34.1 15.2-34.1 34.1 0 18.8 15.2 34.1 34.1 34.1h238.9c18.8 0 34.1-15.2 34.1-34.1s-15.3-34.1-34.1-34.1z"  horiz-adv-x="1024" />

    
    <glyph glyph-name="flag" unicode="&#58939;" d="M640.868 713.374c-157.522 54.79-255.716 30.494-298.174 12.729V799.886c0 17.673-14.327 32-32 32s-32-14.327-32-32v-831.17c0-17.673 14.327-32 32-32s32 14.327 32 32V332.43c51.615 15.411 174.722 43.025 269.706-8.12 123.362-66.426 294.17-18.979 294.17-18.979V713.374c0.001 0-47.446-75.915-265.702 0z"  horiz-adv-x="1024" />

    
    <glyph glyph-name="weihu-copy" unicode="&#58935;" d="M807.38 434.713h-66.030c-11.709 0-24.325 9.091-28.025 20.202l-9.005 21.375c-5.363 10.413-2.98 25.705 5.305 33.987l46.99 46.99c8.283 8.284 8.283 21.834 0 30.118l-42.159 42.158c-8.284 8.284-21.834 8.284-30.115 0l-47.332-47.328c-8.281-8.283-23.613-10.749-34.073-5.479l-20.894 8.598c-11.143 3.613-20.258 16.15-20.258 27.865v67.114c0 11.709-9.58 21.292-21.292 21.292h-59.625c-11.71 0-21.292-9.584-21.292-21.292v-67.116c0-11.708-9.114-24.251-20.255-27.865l-20.896-8.598c-10.458-5.267-25.793-2.802-34.075 5.479l-47.328 47.328c-8.284 8.284-21.834 8.284-30.115 0l-42.164-42.158c-8.283-8.284-8.283-21.838 0-30.118l46.994-46.99c8.283-8.283 10.669-23.575 5.301-33.987l-9.005-21.375c-3.701-11.113-16.31-20.201-28.023-20.201h-66.030c-11.709 0.002-21.292-9.584-21.292-21.294v-59.625c0-11.713 9.584-21.292 21.294-21.292h65.356c11.713 0 24.204-9.132 27.76-20.291l9.067-22.265c5.251-10.471 2.768-25.81-5.511-34.094l-45.91-45.91c-8.283-8.283-8.283-21.833 0-30.115l42.159-42.164c8.283-8.281 21.834-8.281 30.115 0l45.578 45.575c8.283 8.283 23.585 10.684 34.006 5.335l22.74-9.485c11.134-3.642 20.24-16.206 20.24-27.919v-64.273c0-11.71 9.584-21.292 21.297-21.292h59.625c11.713 0 21.295 9.584 21.295 21.292v64.273c0 11.715 9.106 24.278 20.24 27.919l16.558 6.907-32.134 32.137c-17.725-6.007-36.505-9.146-55.771-9.146-46.262 0-89.756 18.019-122.469 50.729-32.709 32.714-50.724 76.203-50.724 122.467 0 46.262 18.015 89.756 50.724 122.469 32.713 32.709 76.207 50.724 122.469 50.724 46.262 0 89.753-18.016 122.465-50.724 32.709-32.714 50.732-76.207 50.732-122.469 0-18.834-2.988-37.207-8.736-54.582l32.258-32.257 6.865 16.865c3.561 11.159 16.052 20.291 27.762 20.291h65.356c11.71 0 21.292 9.58 21.292 21.292v59.625c0 11.711-9.584 21.295-21.292 21.295h-0.003zM641.248 313.807c-6.805 6.662-9.981 12.053-6.164 22.809 20.061 56.507 1.703 114.511-47.481 148.875-31.028 21.677-65.671 27.929-103.909 16.535 14.294-16.786 30.362-30.775 45.455-45.75 29.616-29.398 30.048-65.764 1.799-93.575-27.375-26.954-64.337-26.065-92.763 2.613-14.917 15.041-29.296 30.614-43.92 45.946-1.756-1.047-3.517-2.094-5.28-3.141-8.447-46.131 2.021-87.367 36.688-120.439 36.906-35.207 81.060-45.154 129.488-28.859 12.371 4.161 18.927 1.965 27.312-6.546 36.101-36.656 101.495-98.778 138.285-134.749 17.786-17.398 39.646-17.964 57.175-2.75 21.772 18.892 22.873 43.869 2.007 64.753-36.365 36.381-101.947 98.292-138.701 134.277v0zM747.385 130.304c-11.173 0-20.231 9.060-20.231 20.231s9.058 20.231 20.231 20.231 20.229-9.061 20.229-20.231-9.055-20.231-20.229-20.231v0zM747.385 130.304z"  horiz-adv-x="1024" />

    
    <glyph glyph-name="baobiao" unicode="&#58896;" d="M990.792-41H66.424V119.896l179.88 250.872 143.96-162.6c6.744-7.616 16.528-11.576 26.792-11.128a33.216 33.216 0 0 1 25.312 14.144l109.008 156.408 144.64-93.288a33.136 33.136 0 0 1 45.568 9.376l271.224 404.064a33.2 33.2 0 1 1-55.136 37.008L704.608 347.784l-144.16 92.992a33.224 33.224 0 0 1-45.24-8.92l-103.2-148.048-143.584 162.176a33.04 33.04 0 0 1-26.56 11.144 33.176 33.176 0 0 1-25.28-13.816L66.424 233.888V850.16A33.216 33.216 0 0 1 0 850.16v-924.368a33.2 33.2 0 0 1 33.208-33.208h957.576a33.184 33.184 0 0 1 33.208 33.208 33.168 33.168 0 0 1-33.2 33.208z"  horiz-adv-x="1024" />

    
    <glyph glyph-name="gongsi" unicode="&#58937;" d="M1007.616-40.96h-49.92V579.328c0 16.64-8.704 32-23.296 40.448L680.448 768c-14.336 8.448-32.512 8.448-46.848 0.256-14.336-8.448-23.552-23.808-23.552-40.448v-768.256h-53.248V849.152c0 15.616-7.936 30.464-21.248 39.168-13.312 8.448-29.696 9.984-44.288 4.096L94.72 721.92c-17.152-7.424-28.416-24.32-28.416-43.264V-40.96H16.384c-9.216 0-16.384-7.424-16.384-16.384v-54.016c0-9.216 7.424-16.384 16.384-16.384h990.976c9.216 0 16.384 7.424 16.384 16.384v54.016c0.512 9.216-6.912 16.384-16.128 16.384zM273.92 16.384c0-9.216-7.424-16.384-16.384-16.384H204.8c-9.216 0-16.384 7.424-16.384 16.384V69.12c0 9.216 7.424 16.384 16.384 16.384h52.736c9.216 0 16.384-7.424 16.384-16.384v-52.736z m0 132.608c0-9.216-7.424-16.384-16.384-16.384H204.8c-9.216 0-16.384 7.424-16.384 16.384v52.736c0 9.216 7.424 16.384 16.384 16.384h52.736c9.216 0 16.384-7.424 16.384-16.384v-52.736z m0 132.864c0-9.216-7.424-16.384-16.384-16.384H204.8c-9.216 0-16.384 7.424-16.384 16.384v52.736c0 9.216 7.424 16.384 16.384 16.384h52.736c9.216 0 16.384-7.424 16.384-16.384v-52.736z m0 132.864c0-9.216-7.424-16.384-16.384-16.384H204.8c-9.216 0-16.384 7.424-16.384 16.384v52.736c0 9.216 7.424 16.384 16.384 16.384h52.736c9.216 0 16.384-7.424 16.384-16.384V414.72z m0 132.608c0-9.216-7.424-16.384-16.384-16.384H204.8c-9.216 0-16.384 7.424-16.384 16.384v52.736c0 9.216 7.424 16.384 16.384 16.384h52.736c9.216 0 16.384-7.424 16.384-16.384v-52.736z m160-530.944c0-9.216-7.424-16.384-16.384-16.384h-52.736c-9.216 0-16.384 7.424-16.384 16.384V69.12c0 9.216 7.424 16.384 16.384 16.384H417.28c9.216 0 16.384-7.424 16.384-16.384v-52.736z m0 132.608c0-9.216-7.424-16.384-16.384-16.384h-52.736c-9.216 0-16.384 7.424-16.384 16.384v52.736c0 9.216 7.424 16.384 16.384 16.384H417.28c9.216 0 16.384-7.424 16.384-16.384v-52.736z m0 132.864c0-9.216-7.424-16.384-16.384-16.384h-52.736c-9.216 0-16.384 7.424-16.384 16.384v52.736c0 9.216 7.424 16.384 16.384 16.384H417.28c9.216 0 16.384-7.424 16.384-16.384v-52.736z m0 132.864c0-9.216-7.424-16.384-16.384-16.384h-52.736c-9.216 0-16.384 7.424-16.384 16.384v52.736c0 9.216 7.424 16.384 16.384 16.384H417.28c9.216 0 16.384-7.424 16.384-16.384V414.72z m0 132.608c0-9.216-7.424-16.384-16.384-16.384h-52.736c-9.216 0-16.384 7.424-16.384 16.384v52.736c0 9.216 7.424 16.384 16.384 16.384H417.28c9.216 0 16.384-7.424 16.384-16.384v-52.736z m0 132.864c0-9.216-7.424-16.384-16.384-16.384h-52.736c-9.216 0-16.384 7.424-16.384 16.384V732.928c0 9.216 7.424 16.384 16.384 16.384H417.28c9.216 0 16.384-7.424 16.384-16.384v-52.736z m391.168-663.808c0-9.216-7.424-16.384-16.384-16.384h-52.736c-9.216 0-16.384 7.424-16.384 16.384V69.12c0 9.216 7.424 16.384 16.384 16.384h52.736c9.216 0 16.384-7.424 16.384-16.384v-52.736z m0 132.608c0-9.216-7.424-16.384-16.384-16.384h-52.736c-9.216 0-16.384 7.424-16.384 16.384v52.736c0 9.216 7.424 16.384 16.384 16.384h52.736c9.216 0 16.384-7.424 16.384-16.384v-52.736z m0 132.864c0-9.216-7.424-16.384-16.384-16.384h-52.736c-9.216 0-16.384 7.424-16.384 16.384v52.736c0 9.216 7.424 16.384 16.384 16.384h52.736c9.216 0 16.384-7.424 16.384-16.384v-52.736z m0 132.864c0-9.216-7.424-16.384-16.384-16.384h-52.736c-9.216 0-16.384 7.424-16.384 16.384v52.736c0 9.216 7.424 16.384 16.384 16.384h52.736c9.216 0 16.384-7.424 16.384-16.384V414.72z m0 132.608c0-9.216-7.424-16.384-16.384-16.384h-52.736c-9.216 0-16.384 7.424-16.384 16.384v52.736c0 9.216 7.424 16.384 16.384 16.384h52.736c9.216 0 16.384-7.424 16.384-16.384v-52.736z"  horiz-adv-x="1024" />

    
    <glyph glyph-name="bianhao" unicode="&#58936;" d="M454.863 300.003h89.03l26.638 166.842h-89.73zM511.996 832.775c-247.202 0-447.6-200.397-447.6-447.6s200.398-447.597 447.6-447.597 447.598 200.397 447.598 447.598S759.198 832.775 511.996 832.775z m184.017-365.93h-60.988l-25.939-166.842h69.4l-9.113-57.483h-69.4L582.447 133.16h-65.194l17.525 109.359h-89.029L428.224 133.16h-65.195l17.525 109.359h-60.988l9.114 57.483h60.988l26.639 166.842h-70.102l9.114 57.483h70.101l17.525 109.359h64.494l-17.525-109.359h89.73l17.525 109.359h64.494l-17.526-109.359h60.989l-9.113-57.483z"  horiz-adv-x="1024" />

    
    <glyph glyph-name="jiankong" unicode="&#59325;" d="M599.28 345.675l-88.02 226.372-96.119-180.845-53.647 55.186-90.776-56.565 25.607-14.764 58.172 36.255 70.188-72.267 81.272 152.872 89.862-231.24 76.63 161.338 31.234-66.458 34.24 5.74L672.64 500.14z m267.893-175.414V639.328c0 17.551-13.084 31.741-29.245 31.741H187.113c-16.16 0-29.244-14.191-29.244-31.741v-469.067H61.957v-38.799c0-17.556 13.104-31.74 29.245-31.74h845.83c16.161 0 29.265 14.185 29.265 31.74v38.799h-99.123z m-293.149-13.32h-119.8v20.597h119.8v-20.597z m232.98 51.886H218.059V605.633h588.945v-396.806z m0 0z"  horiz-adv-x="1024" />

    
    <glyph glyph-name="camera" unicode="&#58891;" d="M896 682.677333H768L682.666667 810.666667H341.333333l-85.333333-128H128C57.28 682.666667 0 624.704 0 554.005333V85.333333c0-70.72 57.28-128 128-128h768c70.72 0 128 56.629333 128 127.338667V553.344c0 70.72-57.28 129.333333-128 129.333333z m42.666667-598.005333C938.666667 61.088 919.925333 42.666667 896 42.666667H128c-23.530667 0-42.666667 19.136-42.666667 42.666666V554.005333C85.333333 577.888 104.469333 597.333333 128 597.333333h173.664l85.333333 128H638.506667l83.818666-128H896c23.125333 0 42.666667-20.149333 42.666667-44v-468.661333zM512 554.666667c-117.824 0-213.333333-95.52-213.333333-213.333334s95.52-213.333333 213.333333-213.333333c117.824 0 213.333333 95.509333 213.333333 213.333333s-95.509333 213.333333-213.333333 213.333334z m0-341.333334c-70.581333 0-128 57.418667-128 128s57.408 128 128 128c70.581333 0 128-57.418667 128-128s-57.429333-128-128-128z"  horiz-adv-x="1024" />

    
    <glyph glyph-name="ditudaohang" unicode="&#59516;" d="M959.9 26.2L647.2-64l-286 81L105-46.3H64v509l113.5 74.9 27.1-30.8-99.6-67.2v-438.7l256.8 61.5 285.8-76.8L919 56.5V506.3l-96.5-34-12.5 39.1 137.1 48.3 12.9-33.8v-499.6h-0.1zM758.4 553.9c-5.4-31.4-18.6-79.7-50.4-132.1-16.8-27.5-40-58.7-69.1-92.6-24.5-30.4-50-57.8-71.7-77.1-12-11.9-19.7-19.2-20.5-20l-40.9-38.9-15.8 14.6c-11.7 10.8-27.7 25.6-49.8 48.8-14.6 15.3-65.7 70.6-109.8 139.9-48.2 75.7-71.3 142.1-68.8 197.2 2.9 64.2 29.8 123.9 75.7 168.3C384 807.2 446 832 512 832c68.4 0 134.7-27.3 181.8-74.8 44.7-45 69-104 68.5-166 0-1-0.1-4.7-0.5-10.5-0.5-8.7-1.7-17.7-3.4-26.8z m-93.6 174.4C625.3 768.2 569.6 791 512 791c-55.3 0-107.3-20.7-146.2-58.3-38.3-37-60.8-87-63.2-140.7-2.1-46.6 18.9-104.9 62.5-173.3 42.1-66.2 90.9-119 104.8-133.6 14.4-15.1 26.1-26.5 35.7-35.6l13.1 12.4c0.4 0.4 8.1 7.7 20.2 19.7l0.9 0.8c20.2 17.9 44.2 43.8 67.6 72.8l0.4 0.5c27.7 32.3 49.7 61.7 65.4 87.4 28.6 46.9 40.3 90 45.1 117.9l0.1 0.3c1.4 7.5 2.4 14.9 2.8 21.9v0.3c0.4 4.9 0.4 7.7 0.4 7.8 0.2 51.2-19.9 99.8-56.8 137zM512 494.1c-56.9 0-103.3 44.9-103.3 100 0 55.2 46.3 100 103.3 100s103.3-44.9 103.3-100-46.4-100-103.3-100z m0 159.1c-34.4 0-62.4-26.5-62.4-59.1s28-59.1 62.4-59.1 62.4 26.5 62.4 59.1-28 59.1-62.4 59.1z"  horiz-adv-x="1024" />

    
    <glyph glyph-name="shipin1" unicode="&#58978;" d="M1119.080935 555.092459v-344.154207l364.698684-214.097479V771.16683zM1036.287148 896.007603H148.989278S0 896.007603 0 749.725148v-731.442692c0-146.274852 148.989278-146.274852 148.989278-146.274853H1036.340372s148.996881 0 148.996882 146.274853V749.725148C1185.291633 896.007603 1036.287148 896.007603 1036.287148 896.007603m-609.331551-762.852475V634.852476l434.482996-250.844873-434.482996-250.852475z"  horiz-adv-x="1483" />

    
    <glyph glyph-name="chuan" unicode="&#59222;" d="M224 442.5l13.4 117.8h152.5v45.5h100.4V761.1h87v-318.6H224M577.3 427.5H224c-4.3 0-8.3 1.8-11.2 5-2.8 3.2-4.2 7.4-3.7 11.7L222.5 562c0.9 7.6 7.3 13.3 14.9 13.3H375v30.5c0 8.3 6.7 15 15 15h85.4V761.1c0 8.3 6.7 15 15 15h87c8.3 0 15-6.7 15-15v-318.5c-0.1-8.3-6.8-15.1-15.1-15.1z m-336.5 30h321.5V746.1h-57v-140.2c0-8.3-6.7-15-15-15h-85.4v-30.5c0-8.3-6.7-15-15-15H250.8l-10-87.9zM788.7 276.6H130.3V405.3c0 35.3 28.6 64 64 64h503.5l90.9-192.7zM788.7 261.6H130.3c-8.3 0-15 6.7-15 15V405.3c0 43.5 35.4 79 79 79h503.5c5.8 0 11.1-3.3 13.6-8.6l91-192.7c2.2-4.6 1.9-10.1-0.9-14.4-2.8-4.4-7.6-7-12.8-7z m-643.4 30h619.8l-76.8 162.7h-494c-27 0-49-22-49-49v-113.7zM141 30.4h637s116.4 212.8 224.8 283.7H28.6S109.3 187 141 30.4zM778 15.4H141c-7.1 0-13.3 5-14.7 12C95.6 179.3 16.7 304.8 15.9 306c-2.9 4.6-3.1 10.5-0.5 15.3 2.6 4.8 7.7 7.8 13.1 7.8h974.3c6.6 0 12.5-4.4 14.4-10.7 1.9-6.4-0.6-13.2-6.2-16.8-104-68.2-218.7-276.3-219.8-278.4-2.6-4.8-7.7-7.8-13.2-7.8z m-624.8 30h616.1c9.8 17.2 35.1 60.6 68.2 108.8 43.5 63.3 84.2 111.8 121.6 145H54.8c8.2-14.6 19.4-35.6 31.7-61.7 21.3-45.4 49.6-114.6 66.7-192.1zM743.2 373H237.4v44.6h484.8zM743.2 358H237.4c-8.3 0-15 6.7-15 15v44.6c0 8.3 6.7 15 15 15h484.8c5.8 0 11.1-3.3 13.6-8.6l21.1-44.6c2.2-4.6 1.9-10.1-0.9-14.4-2.8-4.4-7.6-7-12.8-7z m-490.8 30h467.2l-6.9 14.6H252.4V388zM497 568.3h136.5v-99H497zM633.5 454.3H497c-8.3 0-15 6.7-15 15v99c0 8.3 6.7 15 15 15h136.5c8.3 0 15-6.7 15-15v-99c0-8.3-6.7-15-15-15z m-121.5 30h106.5v69H512v-69zM185.6 191m-19.6 0a19.6 19.6 0 1 1 39.2 0 19.6 19.6 0 1 1-39.2 0ZM185.6 161.3c-16.3 0-29.6 13.3-29.6 29.6s13.3 29.6 29.6 29.6 29.6-13.3 29.6-29.6-13.2-29.6-29.6-29.6z m0 39.3c-5.3 0-9.6-4.3-9.6-9.6s4.3-9.6 9.6-9.6 9.6 4.3 9.6 9.6-4.3 9.6-9.6 9.6zM268.7 191m-19.6 0a19.6 19.6 0 1 1 39.2 0 19.6 19.6 0 1 1-39.2 0ZM268.7 161.3c-16.3 0-29.6 13.3-29.6 29.6s13.3 29.6 29.6 29.6 29.6-13.3 29.6-29.6-13.2-29.6-29.6-29.6z m0 39.3c-5.3 0-9.6-4.3-9.6-9.6s4.3-9.6 9.6-9.6 9.6 4.3 9.6 9.6-4.3 9.6-9.6 9.6zM351.8 191m-19.6 0a19.6 19.6 0 1 1 39.2 0 19.6 19.6 0 1 1-39.2 0ZM351.8 161.3c-16.3 0-29.6 13.3-29.6 29.6s13.3 29.6 29.6 29.6 29.6-13.3 29.6-29.6-13.2-29.6-29.6-29.6z m0 39.3c-5.3 0-9.6-4.3-9.6-9.6s4.3-9.6 9.6-9.6 9.6 4.3 9.6 9.6-4.3 9.6-9.6 9.6zM434.9 191m-19.6 0a19.6 19.6 0 1 1 39.2 0 19.6 19.6 0 1 1-39.2 0ZM434.9 161.3c-16.3 0-29.6 13.3-29.6 29.6s13.3 29.6 29.6 29.6 29.6-13.3 29.6-29.6-13.2-29.6-29.6-29.6z m0 39.3c-5.3 0-9.6-4.3-9.6-9.6s4.3-9.6 9.6-9.6 9.6 4.3 9.6 9.6-4.3 9.6-9.6 9.6zM518 191m-19.6 0a19.6 19.6 0 1 1 39.2 0 19.6 19.6 0 1 1-39.2 0ZM518 161.3c-16.3 0-29.6 13.3-29.6 29.6s13.3 29.6 29.6 29.6 29.6-13.3 29.6-29.6-13.2-29.6-29.6-29.6z m0 39.3c-5.3 0-9.6-4.3-9.6-9.6s4.3-9.6 9.6-9.6 9.6 4.3 9.6 9.6-4.3 9.6-9.6 9.6zM601.1 191m-19.6 0a19.6 19.6 0 1 1 39.2 0 19.6 19.6 0 1 1-39.2 0ZM601.1 161.3c-16.3 0-29.6 13.3-29.6 29.6s13.3 29.6 29.6 29.6 29.6-13.3 29.6-29.6-13.2-29.6-29.6-29.6z m0 39.3c-5.3 0-9.6-4.3-9.6-9.6s4.3-9.6 9.6-9.6 9.6 4.3 9.6 9.6-4.3 9.6-9.6 9.6zM684.2 191m-19.6 0a19.6 19.6 0 1 1 39.2 0 19.6 19.6 0 1 1-39.2 0ZM684.2 161.3c-16.3 0-29.6 13.3-29.6 29.6s13.3 29.6 29.6 29.6 29.6-13.3 29.6-29.6-13.2-29.6-29.6-29.6z m0 39.3c-5.3 0-9.6-4.3-9.6-9.6s4.3-9.6 9.6-9.6 9.6 4.3 9.6 9.6-4.3 9.6-9.6 9.6zM767.3 191m-19.6 0a19.6 19.6 0 1 1 39.2 0 19.6 19.6 0 1 1-39.2 0ZM767.3 161.3c-16.3 0-29.6 13.3-29.6 29.6s13.3 29.6 29.6 29.6S797 207.3 797 191s-13.3-29.7-29.7-29.7z m0 39.3c-5.3 0-9.6-4.3-9.6-9.6s4.3-9.6 9.6-9.6 9.6 4.3 9.6 9.6-4.3 9.6-9.6 9.6z"  horiz-adv-x="1024" />

    
    <glyph glyph-name="ditu" unicode="&#58969;" d="M996.864 843.776l-209.92 48.128c-7.68 1.536-15.36 1.024-22.528-2.048l-245.76-112.64L292.352 871.936a34.304 34.304 0 0 1-26.624 0L22.528 777.216c-13.312-5.12-22.528-18.432-22.528-32.768v-668.16c0-11.776 5.632-22.528 15.36-29.184 9.728-6.656 22.016-8.192 32.768-3.584l230.4 89.6 227.328-94.72c4.096-1.536 8.704-2.56 13.312-2.56 5.12 0 10.24 1.024 14.848 3.072l18.432 8.192-31.232 62.976-2.56-1.024-226.304 94.208c-4.096 2.048-8.704 2.56-13.312 2.56-4.096 0-8.704-1.024-12.8-2.56L70.144 128V720.384l207.872 80.896L505.344 706.56c9.216-3.584 19.456-3.584 28.16 0.512l248.832 114.176 171.008-39.424v-595.968l-33.28 7.68-16.896-33.792c-2.56-6.144-5.632-11.776-8.704-17.408l-0.512-1.024-6.144-12.288 92.672-21.504c10.24-2.56 21.504 0 29.696 6.656 8.192 6.656 13.312 16.896 13.312 27.648V809.984c0.512 15.872-10.752 30.208-26.624 33.792zM264.704 710.656V286.72c0-7.68 6.144-13.824 14.336-13.824 7.68 0 13.824 6.144 13.824 13.824V710.656c0 7.68-6.144 13.824-13.824 13.824-8.192 0.512-14.336-5.632-14.336-13.824zM504.832 628.736v-213.504c0-7.68 6.144-13.824 13.824-13.824 7.68 0 14.336 6.144 14.336 13.824V628.736c0 7.68-6.144 14.336-14.336 14.336-7.168 0-13.824-6.656-13.824-14.336zM797.696 483.328V740.864c0 7.68-6.144 14.336-13.824 14.336-7.68 0-13.824-6.144-13.824-14.336v-257.536c0-7.68 6.144-13.824 13.824-13.824 7.68 0 13.824 6.144 13.824 13.824zM699.904 415.232c-91.648 0-166.4-74.24-166.4-166.4 0-30.208 8.192-58.88 22.528-82.944l15.872-32.256 31.232-62.976 96.768-196.096 132.096 266.752 12.288 24.576c7.168 12.8 13.312 26.624 16.896 40.96 3.584 13.312 5.632 27.648 5.632 41.984-0.512 92.16-74.752 166.4-166.912 166.4z m0-215.552c-38.4 0-70.144 31.232-70.144 69.632s31.232 70.144 70.144 70.144c38.4 0 70.144-31.232 70.144-70.144 0-38.4-31.232-69.632-70.144-69.632z"  horiz-adv-x="1024" />

    
    <glyph glyph-name="wenhaoxiao" unicode="&#59592;" d="M512-42.666667c235.648 0 426.666667 191.018667 426.666667 426.666667S747.648 810.666667 512 810.666667 85.333333 619.648 85.333333 384s191.018667-426.666667 426.666667-426.666667z m0-85.333333C229.248-128 0 101.248 0 384S229.248 896 512 896s512-229.248 512-512-229.248-512-512-512zM520.96 663.893333c-62.293333 0-111.786667-17.92-147.626667-54.613333-36.693333-35.84-54.613333-84.48-54.613333-146.773333h90.453333c0 37.546667 7.68 67.413333 23.04 87.893333 17.066667 23.893333 45.226667 35.84 83.626667 35.84 30.72 0 54.613333-8.533333 71.68-25.6 16.213333-17.066667 24.746667-40.106667 24.746667-69.973333 0-22.186667-7.68-42.666667-23.04-62.293334l-14.506667-16.213333c-52.906667-46.933333-85.333333-81.92-97.28-105.813333-11.093333-22.186667-16.213333-49.493333-16.213333-81.066667v-14.506667h91.306666v14.506667c0 21.333333 4.266667 40.106667 13.653334 57.173333 7.68 15.36 19.626667 29.866667 34.986666 43.52 40.96 34.986667 64.853333 57.173333 72.533334 66.56 20.48 27.306667 31.573333 62.293333 31.573333 104.106667 0 51.2-17.066667 92.16-50.346667 122.026667-34.133333 30.72-78.506667 45.226667-133.973333 45.226666z m-14.506667-499.2c-17.92 0-32.426667-5.12-43.52-17.066666-12.8-11.093333-18.773333-25.6-18.773333-43.52 0-17.066667 5.973333-31.573333 18.773333-43.52 11.093333-11.946667 25.6-17.92 43.52-17.92 17.066667 0 32.426667 5.973333 45.226667 17.066666 11.946667 11.946667 17.92 26.453333 17.92 44.373334 0 17.92-5.973333 32.426667-17.92 43.52-11.946667 11.946667-27.306667 17.066667-45.226667 17.066666z"  horiz-adv-x="1024" />

    
    <glyph glyph-name="heliu" unicode="&#58930;" d="M373.105208-104.026908a27.555278 27.555278 0 0 0-19.426471 7.99103l-9.782124 9.644347a27.569055 27.569055 0 0 0 38.852942 39.128495l9.782123-9.644347a27.555278 27.555278 0 0 0-19.42647-47.119525z m-78.256989 77.568106a27.555278 27.555278 0 0 0-19.426471 7.991031l-19.702024 19.426471a27.569055 27.569055 0 0 0 38.990718 38.990718l19.426471-19.288695a27.555278 27.555278 0 0 0-19.288694-47.119525z m-68.888194 144.114103h-0.826659a27.555278 27.555278 0 0 0-26.590843 28.381936q0 7.991031 1.102211 15.982061a27.734387 27.734387 0 0 0 55.110556-6.199937c0-3.857739-0.688882-7.715478-0.826659-11.573217a27.555278 27.555278 0 0 0-27.693054-26.590843z m37.75073 101.541198a27.555278 27.555278 0 0 0-21.35534 44.915103 201.566857 201.566857 0 0 0 22.044222 23.008657 27.624166 27.624166 0 0 0 36.648519-41.332917 144.114103 144.114103 0 0 1-15.982061-16.670943 27.555278 27.555278 0 0 0-21.079787-9.9199z m79.772529 139.291929h-1.791093a27.555278 27.555278 0 0 0-25.764185 29.208595V399.270239a27.555278 27.555278 0 0 0 55.110556 0.826659V384.114837a27.555278 27.555278 0 0 0-27.279725-25.626409z m-27.555278 104.710056a27.555278 27.555278 0 0 0-23.008657 12.262098 143.700773 143.700773 0 0 1-13.777638 18.186484 27.555278 27.555278 0 1 0 40.368481 37.475177 199.224658 199.224658 0 0 0 19.8398-25.075302 27.555278 27.555278 0 0 0-23.421986-42.848457z m-87.488006 136.674177a27.555278 27.555278 0 0 0-27.555278 23.008657q-1.239987 7.853254-1.92887 15.844285a27.651721 27.651721 0 1 0 55.110556 4.546621c0-3.857739 0.826658-7.715478 1.377764-11.435441a27.555278 27.555278 0 0 0-22.733104-31.688569z m17.222048 106.914478a27.555278 27.555278 0 0 0-24.386421 40.368482 195.091366 195.091366 0 0 0 17.222049 27.555277 27.582833 27.582833 0 1 0 43.950668-33.341886 140.118587 140.118587 0 0 1-12.399875-19.42647 27.555278 27.555278 0 0 0-24.386421-15.29318z m116.145496 116.283272a27.555278 27.555278 0 0 0-18.048707 48.359512l10.333229 9.093242a27.555278 27.555278 0 0 0 36.23519-41.332917l-10.333229-9.093241a27.555278 27.555278 0 0 0-18.186483-7.302149zM748.683643-123.315603a27.555278 27.555278 0 0 0-27.555278 27.555278 27.555278 27.555278 0 0 0 46.981749 19.702024 27.555278 27.555278 0 0 0-19.426471-47.257302z m-68.888194 67.92376a27.555278 27.555278 0 0 0-19.426471 7.99103l-47.670631 47.257302c-4.133292 4.133292-8.266583 8.679912-12.124322 13.777639a27.555278 27.555278 0 0 0 3.306634 38.852941 28.519712 28.519712 0 0 0 38.852941-3.306633c2.755528-3.306633 5.786608-6.613267 8.817689-9.644347l47.670631-47.257302a27.555278 27.555278 0 0 0-19.426471-47.67063z m-97.68346 159.545058a27.555278 27.555278 0 0 0-1.239987 55.110555 27.582833 27.582833 0 0 0 2.617751-55.110555h-1.377764z m22.181999 92.447957a26.453067 26.453067 0 0 0-13.777639 3.719962 27.555278 27.555278 0 0 0-10.195453 37.475178 192.886944 192.886944 0 0 0 42.435128 51.528369 149.762934 149.762934 0 0 1 14.87985 14.742074 28.24416 28.24416 0 0 0 38.852941 2.755528 27.555278 27.555278 0 0 0 2.755528-38.852942 203.495726 203.495726 0 0 0-20.528682-20.390906 143.149668 143.149668 0 0 1-30.586358-37.061848 27.555278 27.555278 0 0 0-23.835315-13.915415z m95.203484 162.162809h-1.653316a27.555278 27.555278 0 0 0-19.013142 9.231018 27.555278 27.555278 0 0 0-6.751043 19.977577 27.555278 27.555278 0 1 0 27.417501-29.208595z m-20.666458 92.861286a27.555278 27.555278 0 0 0-24.248644 13.777639 137.776389 137.776389 0 0 1-24.79975 32.515228l-16.395391 16.119837-8.542136 8.955465a27.555278 27.555278 0 0 0 2.066646 38.852942 28.381936 28.381936 0 0 0 38.990718-2.066646l6.062161-6.337714 16.395391-16.119837a192.886944 192.886944 0 0 0 34.444097-45.328432 27.555278 27.555278 0 0 0-10.746559-37.475178 27.555278 27.555278 0 0 0-13.226533-2.893304z m-96.443472 162.025033a27.555278 27.555278 0 0 0-27.555278 24.661974 27.555278 27.555278 0 0 0 6.475491 19.977576 27.555278 27.555278 0 0 0 18.737588 9.644347 27.651721 27.651721 0 1 0 4.546621-55.110555h-2.204422z m19.013142 93.274615a27.555278 27.555278 0 0 0-12.950981 3.168857 27.555278 27.555278 0 0 0-11.43544 37.199625 196.055801 196.055801 0 0 0 44.915103 56.626096l15.155402 13.777639a28.24416 28.24416 0 0 0 38.852942-2.755528 27.555278 27.555278 0 0 0-2.617752-38.852942l-15.155402-13.777639a140.118587 140.118587 0 0 1-32.377452-41.332916 27.555278 27.555278 0 0 0-24.248644-14.053192z m136.94973 134.194203a27.555278 27.555278 0 0 0-20.804235 9.506571 27.555278 27.555278 0 0 0-6.751043 19.977576 27.555278 27.555278 0 0 0 9.506571 18.875365 28.24416 28.24416 0 0 0 38.852942-2.617751 27.555278 27.555278 0 0 0-20.666459-45.741761zM808.478596 48.767107a128.407594 128.407594 0 0 0 6.613266 188.340323 210.935651 210.935651 0 0 1 10.195453 310.410204l-16.39539 16.119837a128.407594 128.407594 0 0 0 5.648832 188.340323L978.770212 894.851909h-125.927619l-92.585733-80.599187a211.073427 211.073427 0 0 1-9.231018-309.721322l16.39539-16.119837a128.269818 128.269818 0 0 0-6.199938-188.753653 210.935651 210.935651 0 0 1-10.884334-309.721321l118.901023-117.936589h116.972154zM120.423311 144.38392a127.02983 127.02983 0 0 0 44.501773 92.72351 210.935651 210.935651 0 0 1 10.195453 310.134651l-16.39539 16.119837a128.407594 128.407594 0 0 0 5.648832 188.340324L328.603434 894.576357h-125.927619L110.090082 813.977169a211.073427 211.073427 0 0 1-8.955466-309.307992l16.395391-16.119838a128.269818 128.269818 0 0 0-6.199938-188.753652 210.935651 210.935651 0 0 1-10.884335-309.721322l118.625471-117.936589h116.283272L157.485159 48.491554a127.02983 127.02983 0 0 0-37.061848 95.892366z"  horiz-adv-x="1024" />

    
    <glyph glyph-name="shipin2" unicode="&#58980;" d="M1117.689021 467.046876c-18.069815 5.813767-33.154183 3.613963-48.081422-6.442282-46.195876-31.425766-92.706009-62.223016-139.216142-93.177396l-37.868048-25.140613c-3.299705 12.727435-6.913668 25.769128-12.727435 38.025177-6.442282 13.35595-15.084368 25.140613-23.412196 36.453888-0.157129 0.157129-0.314258 0.314258-0.471386 0.628516 111.718597 81.706991 127.902867 213.852336 94.277297 305.458444C910.121838 832.057146 806.102553 901.193831 688.255931 895.694322c-55.780734-2.985448-106.219088-21.998036-149.900903-57.037765-47.138649-37.710919-78.093028-85.478083-92.54888-142.35872C407.309585 771.405418 344.615182 816.972778 267.464927 823.729318c-98.991162 8.642086-186.040534-39.282207-229.250962-124.131775-33.939827-66.779752-42.581913-172.998841 38.810821-260.990985-42.739042-32.525668-64.108562-78.093028-63.637176-135.60218 0.471386-61.123115 0.471386-122.0891 0.314258-183.212215l-0.157129-81.549862C13.701868-61.220248 80.48162-128 179.944169-128h548.379613c96.948488 0 163.099725 63.165789 167.185075 158.071602l37.239532-31.111508c45.881618-38.182305 91.763236-76.364611 137.487726-115.018303 12.570306-10.527632 25.45487-13.670208 41.010624-9.584859 39.910723 10.370503 66.779752 43.996072 66.936881 83.592538 0.314258 142.515848 0.314258 285.031696 0 427.704672 0.157129 36.768146-24.354969 69.450942-60.494599 81.392734z m-44.31033-115.175432v-356.053927l-93.491653 77.9359c-26.711901 22.312294-53.423802 44.624587-80.292832 66.622623-3.771092 3.142577-4.08535 4.242478-3.928221 7.385055 0.314258 13.827337 0.314258 27.811803 0.314258 41.63914 0 13.984466 0 27.811803 0.314258 41.796268 0 0.628515 0.471386 2.042675 0.785644 2.828319 56.566378 38.182305 113.447015 76.050353 170.327651 113.918401l5.970895 3.928221zM701.76901 808.802079l1.257031-16.498527c88.149273-0.628515 159.800019-72.750648 159.800019-160.585663 0-42.739042-16.655656-83.121151-47.138649-113.604144-30.325864-30.482993-70.707973-47.138649-113.918401-47.138648-88.463531 0.314258-160.271406 72.593519-160.114277 161.371307C541.811862 720.652806 613.619737 792.460681 701.611881 792.460681l0.157129 16.341398zM117.878281 305.832697c0 40.853496 20.898134 61.437372 62.223017 61.437372h549.950902c40.22498 0 61.437372-21.055263 61.437372-60.651728 0-90.191948 0.157129-180.383896 0-270.575843 0-38.496563-21.055263-59.708955-59.237569-59.708955H179.472782c-41.324882 0-61.437372 20.269619-61.594501 61.908758-0.157129 89.092046-0.157129 178.341221 0 267.590396zM242.324314 721.281321V737.779848l0.157129-16.498527c33.311312 0 64.737078-13.198822 88.463531-37.239532 23.726453-23.883582 36.611017-55.466477 36.453888-88.62066-0.471386-68.351041-56.566378-123.817517-125.231677-123.817517-69.450942 0-124.131775 54.523704-124.446032 124.131775-0.157129 33.625569 12.727435 65.051335 36.453888 88.934917 23.569324 23.569324 54.837961 36.611017 88.149273 36.611017z m249.363452-248.734936h-57.509152c11.156147 17.284171 19.798232 35.039729 26.083386 53.423802 8.327828-19.012588 18.698331-36.768146 31.425766-53.423802z"  horiz-adv-x="1355" />

    
    </font>
</defs>
</svg>
