<?xml version="1.0" standalone="no"?><!DOCTYPE svg PUBLIC "-//W3C//DTD SVG 1.1//EN" "http://www.w3.org/Graphics/SVG/1.1/DTD/svg11.dtd"><svg t="1543374155821" class="icon" style="" viewBox="0 0 1130 1024" version="1.1" xmlns="http://www.w3.org/2000/svg" p-id="38029" xmlns:xlink="http://www.w3.org/1999/xlink" width="35.3125" height="32"><defs><style type="text/css"></style></defs><path d="M953.614 570.466V129.419l8.798-8.798h-8.798V0h-776.94v204.914l-1.703 1.702h1.703v363.85L0 735.078v281.117h261.818V681.153H868.47v335.042h261.818V735.078z m-691.796-17.03H868.47v42.573H261.818v-42.572zM868.47 85.145v49.668l-72.23 72.23h72.23v275.441H261.818V199.947l79.468-79.326h-79.468V85.144H868.47zM176.674 931.051h-91.53V772.115l91.53-85.144v244.222z m868.47 0h-91.53V686.829l91.53 85.144V930.91z" fill="#0061b2" p-id="38030"></path><path d="M836.683 930.767l-42.572-31.929a125.304 125.304 0 0 0-150.847 0l-42.572 31.93a39.876 39.876 0 0 1-47.965 0l-42.572-31.93a125.304 125.304 0 0 0-150.847 0l-55.06 41.72a42.586 42.586 0 1 0 51.513 67.832l55.06-41.72a39.876 39.876 0 0 1 47.964 0l42.572 31.929a125.162 125.162 0 0 0 150.847 0l42.572-31.93a39.876 39.876 0 0 1 47.965 0l42.572 31.93a42.572 42.572 0 1 0 51.37-67.832z" fill="#0061b2" p-id="38031"></path><path d="M836.683 768.426l-42.572-31.93a125.162 125.162 0 0 0-150.847 0l-42.572 31.93a39.876 39.876 0 0 1-47.965 0l-42.572-31.93a125.162 125.162 0 0 0-150.847 0l-55.06 41.721a42.586 42.586 0 1 0 51.513 67.832l55.06-41.72a39.876 39.876 0 0 1 47.964 0l42.572 31.928a125.304 125.304 0 0 0 150.847 0l42.572-31.929a39.876 39.876 0 0 1 47.965 0l42.572 31.93a42.572 42.572 0 1 0 51.37-67.832z m-453.818-561.81l85.995-85.995h-80.177l-85.996 85.995h80.178z m127.716 0l85.995-85.995h-80.319l-85.995 85.995h80.319z m116.931 0l85.996-85.995H633.33l-86.137 85.995h80.32z m127.716 0l85.996-85.995h-80.32l-85.995 85.995h80.32z" fill="#0061b2" p-id="38032"></path></svg>